<?xml version="1.0" encoding="utf-8"?>
<!-- Generator: Adobe Illustrator 13.0.1, SVG Export Plug-In . SVG Version: 6.00 Build 14948)  -->
<!DOCTYPE svg PUBLIC "-//W3C//DTD SVG 1.1//EN" "http://www.w3.org/Graphics/SVG/1.1/DTD/svg11.dtd">
<svg version="1.1" id="Layer_1" xmlns="http://www.w3.org/2000/svg" xmlns:xlink="http://www.w3.org/1999/xlink" x="0px" y="0px"
	 width="749.027px" height="203.964px" viewBox="-187.67 -51.099 749.027 203.964"
	 enable-background="new -187.67 -51.099 749.027 203.964" xml:space="preserve">
<g>
	<path d="M397.777-50.707c6.417,0,12.829,0,19.243,0c-5.825,2.076-14.346,0.324-19.243,0.48
		C397.777-50.387,397.777-50.547,397.777-50.707z"/>
	<path d="M207.283-30.503c0.846,0.117,1.096,0.828,0.959,1.925C206.744-28.354,206.523-29.79,207.283-30.503z"/>
	<path d="M451.657-28.098c-0.212,0.591-0.614,0.989-1.444,0.962C449.989-28.161,450.901-28.054,451.657-28.098z"/>
	<path d="M213.053-24.73c0.07,1.353-1.179,1.387-2.404,1.443C210.473-24.749,212.215-24.288,213.053-24.73z"/>
	<path d="M205.357-21.844c1.405,0.538-0.613,1.563-1.443,1.443C203.767-21.511,205.305-20.937,205.357-21.844z"/>
	<path d="M376.612,20.968c1.027-0.224,0.918,0.687,0.961,1.442c-0.388-0.09-0.478-0.482-0.961-0.48
		C376.612,21.611,376.612,21.291,376.612,20.968z"/>
	<path d="M-13.521,53.2c4.23,0.472,7.38,4.416,5.772,9.144c-1.565-1.758-0.894-3.634-1.924-5.295
		C-10.8,55.232-13.064,55.459-13.521,53.2z"/>
	<path d="M-64.031,77.732c-1.929,1.12-3.266,2.83-3.368,5.774C-71.098,82.166-67.017,75.45-64.031,77.732z"/>
	<path d="M-65.956,80.617c0.069-0.184,1.018-0.849,1.442-0.478C-63.561,80.966-66.646,82.456-65.956,80.617z"/>
	<path d="M536.322,87.355c1.512-0.231,1.88,0.685,2.882,0.963c8.883-3.52,22.099,4.432,19.727,13.948
		c-0.195,0.779-1.312,3.366-3.37,3.368c5.163-10.227-5.799-19.066-15.394-15.876c1.104,3.562,0.501,8.143-2.885,8.659
		c-0.165-1.499,2.885-5.34,0.963-8.659C538.319,88.244,535.563,89.555,536.322,87.355z"/>
	<path d="M357.369,92.644c-0.403,1.818-1.488,0.294-2.404,0.481c-4.432,0.919-8.718,3.884-8.178,9.621
		c0.174,1.83,1.863,1.836,0.963,3.851c-3.701-0.481-3.906-5.889-2.887-9.623C347.796,94.713,352.822,90.174,357.369,92.644z"/>
	<path d="M352.559,95.05c0.07,1.353-1.177,1.388-2.403,1.446C350.486,95.545,351.437,95.212,352.559,95.05z"/>
	<path d="M147.63,127.764c0.481,0,0.96,0,1.444,0c0.132,1.44,0.471,4.696,0,6.252C147.473,133.051,147.661,130.297,147.63,127.764z"
		/>
	<path d="M-108.289,138.346c0.225,1.499-1.21,1.719-1.924,0.961C-110.096,138.463-109.384,138.212-108.289,138.346z"/>
	<path d="M-105.402,138.825c0.481,0,0.962,0,1.443,0c-0.041,0.683-0.079,1.364,0.481,1.446c-0.07,1.049-1.21,1.031-2.406,0.959
		C-106.28,139.874-105.206,139.985-105.402,138.825z"/>
	<path d="M267.414,96.496c0-0.321,0-0.642,0-0.963c-5.093-0.768-5.95,2.711-6.735,6.252c-3.188-0.288-1-3.03-0.961-5.289
		c6.772-3.343,10.535-12.22,19.723-11.549c0.228,1.512-1.294,1.272-1.442,2.406c0.501,0.27,2.438,0.354,1.924,2.887
		c-4.114-2.789-9.209,1.084-12.989,2.883c0.216,1.713,2.913,0.94,3.851,1.925c-1.004,2.604-2.995,1.229-5.291,2.405
		C265.002,96.011,266.56,96.605,267.414,96.496z"/>
	<path d="M127.908-50.707c1.443,0,2.886,0,4.33,0c-0.261,1.741,1.704,1.741,1.442,0c3.207,0,6.415,0,9.622,0
		c3.946,1.505,9.609,1.294,10.583,5.772c1.917,0.312,0.369-2.838,2.406-2.406c14.151,1.193,27.586,1.852,40.407,0
		c1.734,0.189,0.123,3.726,2.889,2.886c2.784-0.755-1.655-3.259,0.96-3.848c6.49-0.361,14.108-1.299,21.167-2.405
		c42.333,0,84.666,0,126.996,0c-15.377,3.609-32.606,3.672-49.064,3.848c-11.274,0.123-23.798,0.547-33.195,0.962
		c-1.278,0.165-1.686,1.201-2.883,1.443c-1.469,0.026-1.155-1.731-2.888-1.443c-16.733,1.634-29.762,0.819-44.257,2.405
		c-1.312-0.452-0.912-2.613-3.368-1.924c-2.432,0.403,1.36,1.891-0.479,2.886c-1.87,1.439-7.025,1.267-9.14,0.962
		c-3.48,4.352-7.778,0.108-11.547,0c-3.003-0.086-5.816,1.618-8.658,1.924c-2.239,0.241-4.386-0.199-6.734,0
		c-3.741,0.319-7.562,2.178-11.064,2.406c-5.674,0.369-11.913-0.799-16.837-1.924c-2.81-0.641-5.627-2.484-8.659-2.886
		c-5.625-0.746-11.248,1.381-16.837,0.962c-0.459,5.153-8.076,3.15-11.545,5.292c-1.366-0.237-0.693-2.515-2.886-1.924
		c-1.28,1.078,0.68,2.411-0.48,3.367c-6.998,2.624-11.037,8.207-17.8,11.064c-2.042,6.296-8.985,7.688-12.026,12.988
		c-6.044,2.293-12.832,3.844-19.241,5.773c2.112,2.731,5.774,2.87,8.178,4.329c2.458,1.494,5.247,3.594,6.734,5.772
		c2.942,4.312,3.659,13.416,2.886,19.724c-4.37,5.572-12.175,7.708-23.091,6.734c-0.355-0.765-2.354,0.111-1.924-1.443
		c-5.873,0.382-11.03,1.476-14.432,4.33c-4.866-1.547-8.861-3.966-15.875-3.367c-6.73-4.817-14.197,2.979-19.723,2.405
		c1.004-3.325,3.594-5.065,3.848-9.14c-4.333-2.223-8.505,0.742-12.988,2.886c-5.145,2.461-13.642,11.776-16.356,2.406
		c1.922-1.926,3.446-4.253,4.811-6.734c9.554-6.641,26.271-12.516,43.294-11.064c2.698,0.23,4.695,1.121,7.216,0.962
		c4.814-0.301,12.295-2.975,14.913-5.292c1.612-1.427,2.375-3.75,2.886-5.772c-1.138-1.266-2.146-2.664-4.329-2.886
		C40.114,1.934,38.16,5.734,32.66,6.538c-3.946,0.578-6.333-1.088-8.659-1.442c-1.323-0.203-2.926,0.216-3.848,0
		c-1.308-0.308-2.388-1.423-3.85-1.444c-6.136-0.084-9.2,5.238-14.431,4.33c-0.844,1.241,0.499,2.312-1.444,2.886
		c-3.459,1.319-6.929,2.377-10.583,3.848c-3.432,1.381-6.516,3.85-10.102,4.811c-4.003,1.07-6.188,1.399-9.14,2.405
		c-1.854,0.631-4.202,0.708-5.772,1.444c-3.123,1.461-5.432,4.782-8.66,5.772c-1.421,0.437-3.659-0.587-4.81,0.481
		c-1.704,0.261-1.183-1.703-2.886-1.443c-0.815,2.873-3.081,4.297-5.292,5.772c-10.856,1.812-19.42,5.916-29.825,8.178
		c-1.214,0.568-3.114,2.953-4.329,1.924c0.041-0.757,1.227-0.376,0.962-1.443c-2.065-0.14-1.583,2.268-3.368,2.406
		c0.667,3.926-2.387,7.291-3.368,11.065c-3.301,1.189-6.761,2.218-11.064,2.407c-2.24-1.29-4.169-2.888-8.178-2.407
		c-2.154,2.197-1.747,4.001-2.886,7.217c-2.004,2.14-9.15,5.923-11.064,0.961c1.554-0.532,3.478-0.693,4.33-1.922
		c0.317-1.771,0.934-3.238,0.962-5.295c-6.506-1.286-10.499,1.023-14.431,3.848c-0.243,1.512,1.132,1.968-0.482,2.406
		c-2.333-0.442-3.7,2.185-6.254,2.885c-0.691-0.636-1.21-2.2-2.404-0.961c-0.918,3.321,3.118,1.691,2.886,4.33
		c-0.977,2.824,0.071,4.809-0.482,8.176c1.361,0.082,3.299-0.413,3.368,0.961c0.11,4.63,1.992,8.844,1.442,15.396
		c3.694,1.115,6.775,0.501,11.546,0.961c0.677-7.949-0.301-15.513,0-25.495c0.992-1.871,5.261-1.559,6.734,0
		c0.403,2.325-0.447,3.401-0.962,4.811c1.992,1.59,1.874,5.002,1.924,7.216c0.103,4.42-0.978,9.053,0,12.987
		c14.893,0.538,29.671,1.323,42.814,0c0.326-3.521-1.127-8.822,1.924-9.623c3.887,1.652,10.156-1.9,12.507,1.446
		c-0.573,3.348-0.16,4.698-0.48,8.177c1.187,0.896,4.201-0.033,4.329,1.924c0,2.403,0,4.81,0,7.215
		c1.631,1.167,2.65,3.715,5.292,4.33c3.905,0.912,7.008-1.444,9.621-1.442c-2.419,5.492-11.695,2.984-14.912,0
		c-0.421,2.715-0.756,5.391,0,8.176c5.831,0.649,13.219,1.139,19.724,1.444c1.372-2.103-0.466-4.486,0-7.217
		c-3.423-0.139-7.106-7.413-2.887-9.139c0.483,2.235-0.647,6.447,2.406,7.215c0.755-2.611,1.125-5.61,3.368-6.733
		c3.263-0.267,7.62,0.563,10.102-0.481c-0.078-16.842,0.228-31.448,0-47.624c-1.556-0.55-5.095,0.532-6.735,1.444
		c-1.251,1.265,0.778,0.376,0.481,1.922c-1.995,0.421-5.007,2.299-5.772,3.369c-0.449,0.628,0.096,1.975-0.481,3.369
		c-0.505,1.213-2.11,2.012-2.405,2.885c-1.028,3.054-0.118,6.677-1.443,9.141c0.527,1.557,2.492,1.68,2.405,3.849
		c-4.168,0.622-4.481-2.173-4.811-5.293c-0.186-1.773,2.18-4.894-0.48-4.808c-1.319,0.435,0.938,1.77-0.962,1.923
		c-4.396,0.098-9.287,3.859-12.508,6.733c0.495,1.809-0.667,4.744-2.405,5.774c-1.357-1.954,0.37-4.24,0-6.733
		c4.388-4.324,8.4-10.868,17.317-9.144c2.261-9.123,7.084-15.686,17.8-16.355c0.2-5.408-0.08-9.402,0-12.988
		c3.92-0.648,12.144-1.612,13.469,1.924c-1.069,7.929,1.268,17.756,0.482,24.532c-0.077,0.657,0.314,1.577-0.962,1.926
		c2.443,10.455,0.167,24.104-0.481,34.635c2.329,1.041,6.514,0.221,9.621,0.479c1.117-11.069,0.167-24.207,0.482-36.079
		c-2.108-0.624-4.506,1.229-4.811-0.479c0.796-1.128,2.806-1.043,4.811-0.961c0.164-5.78,1.002-12.191,0.481-17.799
		c-0.315-3.379-2.674-7.249,0.962-9.14c3.967-0.057,9.733-1.727,11.545,1.442c0,8.499,0,16.996,0,25.497
		c3.016,1.059,7.282,3.212,6.254,6.735c-1.83-2.147-7.912-8.885-9.14-2.888c-0.226,1.67,2.609,0.276,2.886,1.443
		c0.277,10.98-0.435,22.89,0,31.271c1.289,1.293,1.83-0.615,2.886-0.964c-0.06,2.761,5.344,2.171,7.216,1.445
		c-0.49-10.531,1.21-18.574,0-28.383c-2.536,0.031-3.532,1.602-6.254,1.444c0.966-2.399,4.789-1.949,6.735-3.366
		c-0.155-6.804,0-13.271,0-20.686c0-5.398-1.075-11.365,1.443-14.913c3.367,0,6.734,0,10.102,0
		c4.083,1.908,2.069,8.762,1.924,13.469c-0.237,7.711,0.667,15.749,0,22.611c4.305,1.585,10.217,2.468,12.989,6.731
		c2.257,3.471,4.458,12.179,0.962,15.393c0.054-11.278-3.908-18.54-13.469-20.202c-0.608,8.131-0.417,18.024-0.482,27.901
		c3.103,1.066,8.138,0.201,12.026,0.479c1.664,0.855-1.279,3.525,0.962,3.368c5.607,0.029,6.514-9.162,3.848-12.987
		c1.757,0.006,2.578,0.953,3.368,1.924c0.968,1.738-0.048,2.33-0.481,3.849c4.115,1.091,6.871,6.774,4.33,11.549
		c2.726,0,5.453,0,8.178,0c0.994-1.253-0.197-4.688,1.924-4.812c4.031,1.286,8.687-0.677,11.546,0.481
		c1.284,1.112-0.331,3.69,0.48,4.33c3.368,0,6.734,0,10.102,0c1.104-6.275,0.174-14.579,0.481-21.651c1.059-1.26,1.6,1.494,2.887,0
		c0.533-2.777-2.723-1.767-2.887-3.848c0.846-11.958-1.718-28.003,0.963-41.852c4.325-1.163,6.964-0.235,9.621,2.406
		c0.02,19.431-0.028,41.327,0,59.168c-0.455,1.2-2.477-1.294-2.406,0.963c2.209,1.962,2.993,5.346,4.812,7.696
		c1.098,3.232-0.879,9.537,1.924,11.065c0.354-5.808,1.626-11.933,0.48-17.801c0.78-0.982,3.55,0.023,4.33-0.959
		c0.535-8.283-1.136-18.775,0.962-25.497c-0.748-1.695-1.042-3.568-0.962-5.293c0.277-5.935,0.164-15.577,0.48-20.686
		c0.323-5.218-1.03-10.845,0.962-14.912c1.897-0.132,1.472,2.056,3.368,1.924c2.079,0.807,5.973-0.201,6.735,1.924
		c-0.571,8.249-0.531,17.107-0.481,25.977c0.331,1.294-0.994,0.93-1.443,1.443c-0.184,1.791,1.951,1.26,1.443,3.37
		c0,10.74,0,21.486,0,32.23c1.86,0.411,4.309,0.701,6.735,0c0.453-8.466-0.438-22.897,0.481-32.712
		c2.527,0.282,3.227-1.263,3.367-3.367c-1.521-1.881-3.385,1.738-3.848-0.481c-0.341-1.785,0.822-2.064,0.481-3.848
		c2.138,1.499,4.598-1.138,3.367-2.888c-2.678-0.914-1.7,1.828-3.367,1.925c-0.765-5.78-0.401-9.461,5.291-9.621
		c4.481,2.629,2.798,13.268,2.406,19.243c-1.536,0.548-3.672,0.497-2.886,3.369c0.802,1.975,2.315-1.748,2.886,0
		c0.13,1.63-0.373,3.896,0.48,4.809c4.232-2.129,10.018-6.609,15.875-5.773c3.916,0.56,6.127,4.157,9.142,5.773
		c2.541-2.509,8.64-3.212,12.507-2.885c0.441-10.085-0.112-18.619,0-27.902c0.034-2.908,0.989-6.067,0.962-9.14
		c-0.06-6.878-1.804-14.383,1.444-20.685c-3.171-0.035-3.392-3.021-3.368-6.254c0.892-1.353,3.576-0.916,5.772-0.962
		c-3.868-4.636-1.11-9.438,3.368-11.064c2.589-0.939,5.694,0.017,8.178-0.48c7.041-1.41,11.396-7.188,16.355-10.584
		c2.703-1.85,6.201-4.307,9.621-5.291c3.756-1.081,8.027-0.622,11.547-1.444c8.898-2.081,18.178-5.514,25.979-7.696
		c2.85-0.798,6.283-0.987,8.176-3.368c-7.969,0.805-14.741,3.454-21.648,4.33c-1.885,0.241-5.127,0.773-7.217,0.48
		c-3.637-0.509-5.865-4.565-9.14-5.291c-6.884-1.525-12.103,2.221-16.835,4.811c-5.188,2.838-9.805,5.626-13.472,8.178
		c-5.289,3.678-10.923,6.287-14.912,10.102c-5.201,2.655-11.246,4.468-15.393,8.178c-0.652-0.152-0.918-0.686-1.924-0.481
		c-2.235,4.183-6.733,3.921-11.066,5.292c-0.618,1.146-1.585,1.942-2.406,2.886c-1.88,0.023-2.291-3.131-4.33-1.444
		c-0.868,2.953,2.45,1.718,1.924,4.33c-3.812,5.327-8.105,10.173-13.469,13.95c-0.622,0.664-2.088,0.477-3.368,0.48
		c-1.404,0.357-0.93,2.597-2.886,2.406c-0.191-0.828,0.713-1.232,0-1.442c-2.026,1.02-3.569,2.523-6.734,2.404
		c-0.524,2.043-2.578,2.554-4.811,2.886c-0.007-0.956-1.312-0.61-0.96-1.924c-0.145-2.548,3.022-1.788,3.848-3.367
		c-0.844-0.439-1.672-0.895-1.443-2.406c-4.097,1.926-9.519,2.445-12.988,5.292c-1.856,1.521-2.609,4.961-5.291,4.81
		c-1.468-0.082-4.663-3.724-4.33-6.254c0.333-2.529,5.069-5.646,7.216-6.734c1.603-0.812,4.045-1.379,5.772-1.924
		c14.576-4.586,28.661-17.765,41.852-19.242c0.928,0.195,0.042,2.203,1.924,1.443c1.173-1.127-0.537-1.076-0.962-1.924
		c2.187-1.934,5.105-1.831,7.697-2.886c7.118-2.9,13.792-8.326,21.648-12.026c3.842-1.81,7.384-3.774,11.064-5.772
		c6.241-3.389,11.976-7.317,18.759-9.621c2.979-1.011,5.813-0.944,8.659-1.924c2.165-0.746,4.525-2.133,7.217-2.406
		c6.669-0.673,7.3,2.364,12.026,3.368c4.424,0.939,8.031,0.044,12.026-0.481c0.636,1.447,0.77,3.402,3.368,2.886
		c1.467-0.89-0.556-2.287,0-3.848c10.27-2.297,20.931-1.229,32.711-1.924c0.234,1.197,0.111,2.714,1.924,3.368
		c2.192-1.346-0.99-2.601,0.479-4.33c18.557-1.65,32.111-8.301,51.474-9.14c1.897-0.132,1.471,2.056,3.367,1.924
		c0.893-0.711,0.721-2.485,2.407-2.404c5.759-1.458,12.651-1.78,17.315-4.33c1.304,0.299,1.2,2.01,2.889,1.924
		c1.613-1.227,0.013-2.806,1.441-3.848c1.703-0.223,2.994-0.856,3.848-1.924c9.463,0,18.925,0,28.383,0
		c-8.758,0.624-14.868,5.778-23.571,5.772c-1.394,0.529-2.31,1.538-3.368,2.406c-16.175,4.25-34.097,9.111-50.988,11.063
		c-1.512,0.225-1.359-1.209-1.927-1.924c-1.435,0.011-0.616,2.27-1.444,2.887c-7.23,0.901-11.818,1.274-16.834,3.367
		c-1.688-0.237-3.132-0.715-5.295-0.48c-2.734,1.108-5.561,3.152-8.657,3.849c-1.971,0.443-4.239,0.008-6.252,0.48
		c-0.916,0.215-1.491,1.077-2.407,1.443c-1.884,0.756-3.88,0.083-5.771,0.48c-3.136,0.664-5.745,2.438-8.66,2.887
		c-6.886-1.632-12.05,1.882-17.319,5.291c-1.844,0.086-0.172-0.395-0.479-1.442c-7.3,3.122-9.042,11.805-12.988,18.28
		c-2.094,0.722-4.142,2.844-6.733,3.367c-2.832,0.572-5.913-0.469-8.659,0c-2.742,0.469-4.927,2.672-7.696,3.368
		c-3.999,1.002-8.101-0.35-11.063,2.404c-4.643-0.528-12.037-5.445-14.914-0.48c2.651,1.039,7.113,0.262,9.143,1.924
		c0.168,2.737,0.117,5.251-1.444,6.254c0.117,10.783,1.904,21.002,1.922,32.229c0.01,4.952-1.538,10.633,0.963,15.393
		c-2.325,4.205,0.435,10.911-0.481,16.836c3.441,2.974,7.423,5.406,7.217,12.026c8.286-0.565,14.761,3.169,13.95,10.103
		c-2.174-0.231-1.636-3.173-2.885-4.33c-3.202-1.288-5.477-3.5-9.623-3.849c-2.691,0.035-1.636,3.815-4.329,3.849
		c-0.959-1.405,0.842-2.875,0.961-4.808c0.265-4.146-1.265-8.815-4.81-9.622c-0.702,6.318,0.908,13.886,0.481,22.607
		c9.052-1.25,15.102,3.954,12.987,15.397c2.077-0.56,1.424-3.19,2.406-4.812c0.614-1.014,1.844-1.319,2.403-2.405
		c2.682-5.201,2.403-12.494,6.733-16.354c7.023,0.505,14.086,0.528,22.608,0.479c1.867-5.635-0.329-12.183-0.959-17.799
		c1.649-1.234,2.345-3.427,5.292-3.366c3.673,6.412-0.782,13.555,2.404,21.165c10.255,0.31,22.991-1.059,32.71,0.961
		c0.781,1.787,0.401,4.731,0.481,7.217c4.046,1.085,10.075,0.188,14.914,0.482c0.406-3.714-0.695-12.365,0.479-16.838
		c-0.989-1.415-3.49-1.321-3.369-3.849c-1.93-1.117-4.257-1.836-4.81-4.33c1.929-1.542,6.211,3.032,7.699,5.295
		c1.17-0.483-0.945-2.129,1.44-1.926c-1.409-1.637-0.54-5.553-1.923-7.217c2.108-2.249-0.094-5.55,0-8.658
		c0.032-1.055,1.155-1.961,1.443-3.368c0.307-1.505-0.401-2.405,0-3.367c0.902-2.158,2.621-3.604,4.809-4.811
		c0.506-2.108-1.626-1.58-1.442-3.367c2.65-4.235,8.082-7.705,13.47-9.622c2.105-0.75,4.854-0.482,6.734-1.442
		c4.047-2.069,5.694-6.617,8.658-8.659c2.337-1.61,6.005-2.801,9.141-3.368c3.336-0.606,7.521,0.082,12.026-1.444
		c2.381-0.803,4.694-3.179,7.216-5.291c2.129-1.782,5.044-3.496,6.736-5.292c3.992-4.236,3.973-9.781,7.216-14.432
		c0.842-1.21,2.646-2.435,3.848-3.848c2.703-3.177,4.708-5.468,8.66-8.178c3.347-2.297,7.751-4.466,12.985-5.292
		c6.416-1.014,12.539-0.535,18.28-1.924c10.384-2.513,17.567-10.181,24.05-17.799c5.074-5.956,9.436-9.268,17.801-12.026
		c7.9-2.604,15.754-4.877,25.498-7.216c-4.519-4.285-11.354-0.795-17.319-0.962c-6.068-0.168-13.784-2.143-18.282-3.367
		c32.614,0,68.062,0,101.988,0c5.003,0,10.508-0.896,14.426,0c0.071,0.016-0.051,0.876,0,0.962c-0.685,0.117-0.806,0.792-1.44,0.962
		c-2.528,0.788-4.635-0.79-7.215-0.962c-5.716-0.378-9.583,1.642-13.475,1.924c-8.703,0.633-14.034-2.456-22.127-2.406
		c-1.209,1.616-3.296,0.174-4.807,0.481c-1.28,0.258-1.648,1.331-3.371,1.924c-1.269,0.437-6.135,0.082-7.215,0.48
		c-0.121,0.044-0.247,1.308-0.481,1.443c-0.561,0.325-1.898-0.392-2.404,0c-0.735,0.572-0.207,2.496-1.444,2.405
		c-13.494,3.206-25.579,9.21-39.445,10.584c-7.454,3.738-13.679,7.518-21.171,12.508c-0.224,2.978-1.723,4.688-2.4,7.215
		c-2.095-0.491-2.216,0.994-3.371,1.443c-0.348,1.471,0.83,1.416,0.482,2.886c-3.081,3.496-7.672,5.478-11.065,8.659
		c-3.272,1.061-8.505,2.171-12.506,0.962c-3.108,1.767-6.104,0.664-9.144,2.406c-7.123-1.595-14.639,5.661-17.799,9.621
		c-2.667,3.345-3.809,7.763-6.254,11.064c-0.788,1.067-2.308,2.524-3.368,3.368c-2.633,2.1-6.305,4.458-9.618,5.292
		c0.205,1.503-2.564,2.443-2.888,4.329c-0.433,2.534,1.583,4.823,2.405,7.697c0.818,2.864,2.134,7.378,1.443,9.622
		c-1.529,4.96-11.605,4.232-15.875,4.808c-2.374,3.719-8.446,3.742-10.58,7.696c-2.822,0.388-5.719,0.697-8.178,1.444
		c2.646,14.446-0.638,28.114,0.959,41.854c3.383-0.327,4.913-0.46,9.142-0.481c0.692,1.071,1.209,2.317,0.959,4.33
		c1.812-0.693,2.196-3.277,4.329-4.812c1.903-1.368,5.896-3.559,7.697-0.478c-4.8-0.472-6.761,1.895-8.656,4.326
		c-0.622,5.753,1.438,8.827,3.367,12.026c4.303-1.099,7.396,0.002,11.545,0c1.832-2.142,0.505-4.698,0.481-7.216
		c-0.09-9.517,1.382-20.529,0-31.749c1.462-0.821,1.601-1.706,2.885-1.926c10.535-1.805,3.106,20.229,5.293,27.421
		c-0.731,0.871-3.298-0.092-2.885,1.925c1.027,1.333,2.62-0.889,2.885,0.963c-0.16,3.12-0.133,6.585-0.481,10.58
		c1.582,0.984,4.874,0.26,7.217,0.481c1.286-5.295,1.126-11.073,0.479-17.317c5.957-1.104,13.937-0.177,20.687-0.481
		c-0.818-2.477,1.339-3.741,0.481-6.254c-1.128-3.295-4.618-1.885-6.733-4.33c2.957-1.822,2.591-7.977,0.959-10.58
		c-2.514-4.021-8.296-1.628-12.504-3.37c-1.964,1.245-3.771,2.646-6.737,2.885c-0.382-0.896-0.801-1.762-0.96-2.885
		c3.42,0.282,5.305-2.844,8.658-3.367c10.468-1.634,19.559,7.744,14.432,16.838c4.396,1.136,6.934,7.36,3.367,11.063
		c2.537,0.189,6.071-0.623,7.219,0.963c0.29,1.791-1.233,3.042,0,4.326c5.449,0,10.9,0,16.355,0
		c1.609-3.892,1.34-8.495,0.479-12.985c0.889-1.52,4.239-0.572,4.329-2.888c1.14-4.645-0.341-11.062-0.481-16.836
		c-0.051-2.117,0.705-4.392,0.481-6.252c-0.225-1.887-1.46-3.576-1.444-5.292c0.062-7.168,5.702-12.759,14.434-10.101
		c3.348-2.29,6.805-5.751,11.063-6.735c4.424-1.027,8.158-0.101,11.545-1.444c0.642-0.254,1.037-1.395,1.926-1.924
		c0.811-0.483,2.385-0.591,2.886-0.962c3.883-2.891,5.641-7.927,12.026-6.735c2.251-0.486,1.597,1.929,3.848,1.444
		c1.222-1.827,3.222-2.871,2.886-6.254c3.046-3.225,4.377-6.344,8.178-8.177c5.082-2.454,11.322-2.233,14.43-7.216
		c1.985-3.184,0.854-6.923,3.849-8.66c1.472-0.349,1.417,0.83,2.886,0.481c0.262-1.704-1.703-1.183-1.441-2.886
		c7.098-7.543,4.866-21.786,15.394-25.977c4.134-1.646,9.176-0.981,15.874-1.444c1.695-1.032,2.686-2.764,4.812-3.368
		c0.924,0.197,0.376,1.865,1.922,1.444c1.21-1.475-1.604-2.532,0.481-3.848c4.659-0.333,7.846,0.813,12.504,0.48
		c0,2.887,0,5.773,0,8.66c-2.9,0.04-5.12-1.774-7.215-1.444c-3.421,0.541-5.011,4.703-8.178,5.772
		c-4.021-0.492-5.673,1.381-8.178,2.406c-0.313-2.68-3.003-1.722-5.289-1.444c-0.113-1.875,2.971-0.555,3.366-1.924
		c-2.027-1.858-4.087,1.904-4.812-0.962c0.572,2.765-4.146,4.244-2.885,7.698c-1.115-0.155-1.848,0.078-2.403,0.48
		c-0.505,4.628-2.553,7.709-3.849,11.546c-3.77,0.783-3.621,3.762-5.293,7.215c-1.143,2.365-3.3,4.224-4.33,6.735
		c-2.29,5.576-2.748,10.874-6.732,14.431c-1.884,1.002-4.526,1.249-5.775,2.886c-1.542,0.422-0.657-1.588-1.922-1.443
		c-0.85,0.435-0.795,1.771-1.926,1.924c-6.006-0.572-10.852,3.359-11.545,9.621c-0.677,0.924-2.337,0.87-3.371,1.443
		c1.206,13.347-0.121,33.062,0.482,47.625c3.331,0.339,12.233-0.172,14.915-0.481c0.943,1.296,0.286,4.205,0.478,6.254
		c1.163,0.922,3.868,0.304,5.774,0.479c-1.652-1.647-4.118-4.73-2.403-8.178c-2.862-1.941-7.086-3.212-7.697-7.217
		c-0.782-5.076,3.786-9.985,9.619-8.658c-2.224,2.375-6.131,1.089-7.219,4.81c-1.703,5.847,5.007,11.723,9.145,6.735
		c-4.976-4.095-0.642-12.198,4.808-12.989c-1.12,2.406-5.731,4.646-5.293,8.178c0.392,3.124,2.553,3.367,6.256,3.371
		c-3.284,2.173-8.515,3.406-8.659,7.696c-0.098,2.905,2.885,3.398,2.403,6.252c2.247,0,4.49,0,6.737,0
		c1.981-6.354,0.454-16.219,1.441-23.571c0.004-1.761,2.822-0.706,2.407-2.885c0.234-2.594-1.703-0.031-2.407-1.444
		c-0.85-2.345,0.932-4.671-0.96-6.252c0.572-1.512,2.654-1.516,2.886-3.371c-0.074-3.771-2.028-5.668-2.408-9.139
		c1.899-4.841,8.183-5.291,12.026-8.178c2.079,0.671,1.773,1.824,3.849,0.48c0.211-10.426,4.933-26.223,18.282-25.015
		c3.179-2.443,5.136-2.179,7.696-3.848c4.96-3.233,4.765-8.448,8.178-11.545c0,1.764,0,3.527,0,5.291c-0.16,0-0.32,0-0.478,0
		c-1.902,0.384-2.105,4.524,0.478,4.33c0,1.603,0,3.208,0,4.811c-0.16,0-0.32,0-0.478,0c-1.057,2.151-1.729,4.685-3.37,6.254
		c-6.334,2.488-11.247,6.392-17.801,8.659c-0.959,1.926-2.204,3.568-4.33,4.33c-1.565,5.169,0.008,13.479-5.771,14.432
		c-2.169,1.31-1.934-1.646-3.848-1.925c-1.233,2.299-2.619,4.438-4.812,5.772c0.634,4.273-4.439,9.795,0,12.506
		c8.844-5.555,20.921,6.663,12.989,13.472c-0.216-3.256,1.75-5.906,0-9.142c-1.895-3.496-10.021-5.79-13.952-2.403
		c0.301,8.979-0.752,17.444-0.481,25.495c2.306,0.186-0.826-2.315,1.444-2.406c6.926,1.51,13.623-1.959,17.319,1.925
		c0.137,2.429,0.959,4.171,1.444,6.254c6.307-1.069,14.555-0.198,21.645-0.478c0,1.44,0,2.883,0,4.325c-0.16,0-0.32,0-0.478,0
		c-0.141,0.981-1.3,0.943-1.444,1.925c0.427,0.375,1.084,0.519,1.922,0.481c0,4.648,0,9.304,0,13.95
		c-2.403-0.904-3.699,0.319-4.329,2.405c1.17,1.58,2.908,0.689,4.329,0c0,7.216,0,14.433,0,21.647c-6.761,0.799-14.426,0-23.57,0
		c-24.417,0-47.687-0.519-70.714,0.481c-13.835,0.601-28.468,0.341-43.294,0c-13.338-0.306-25.398-0.521-38.005,0.481
		c-0.916,0.07-4.12,0.485-6.733,0.478c-31.51-0.047-66.34,0.435-99.096-0.478c-24.107-0.674-48.759-0.184-68.31-0.481
		c-3.824-0.059-7.716-0.177-11.544,0c-1.913,0.088-3.858,0.552-5.774,0.481c-1.68-0.062-3.508-0.994-5.293-0.963
		c-2.02,0.035-3.859,0.955-5.771,0.963c-5.294,0.025-11.476-0.37-17.318-0.481c-23.741-0.458-48.706,0.481-73.12,0
		c-24.375-0.481-47.782-0.423-74.082-0.481c-39.023-0.086-77.818-0.881-116.895-0.959c-7.597-0.016-15.402,0.842-23.091,0.478
		c-16.574-0.783-31.19-1.394-45.219-0.959c-7.371,0.227-14.382,0.172-21.167-0.481c0-23.732,0-47.464,0-71.195
		c7.737,1.997,17.766-2.979,20.205,3.367c2.691-0.676,3.282-3.453,5.291-4.812c0.646,2.562,5.206,1.212,7.698,1.926
		c0.93-2.814,0.735-8.342-0.481-10.581c2.401,0.414,3.079-2.346,4.33-3.849c3.403-4.099,9.096-10.867,13.95-13.471
		c1.185-0.635,2.846-1.298,4.33-1.442c3.162-0.306,6.382,1.857,9.621,1.924c4.167,0.084,7.406-1.873,10.102-3.849
		c3.572-2.62,5.076-6.271,9.14-9.14c1.218-0.86,3.11-1.347,4.811-2.405c2.974-1.85,7.931-5.107,12.508-5.772
		c5.676-0.826,9.852,1.224,16.836-0.962c1.515,1.168-2.227,3.155,0.962,3.368c2.766-0.331-0.072-3.857,1.924-4.33
		c3.592-0.429,6.003-3.075,9.14-4.33c3.454-1.381,7.207-1.571,10.583-2.886c2.255-0.878,4.448-2.437,6.735-3.367
		c6.381-2.596,15.377-4.293,22.127-7.698c5.563-2.804,10.731-8.84,16.838-12.026c0.878-0.459,2.09-0.188,2.886-0.481
		C4.093-3.417,7.26-5.9,10.042-6.442c3.791-0.736,7.699,0.096,12.026,1.924c3.383-0.832,4.74-0.071,7.216,0.962
		c2.389-0.818,4.344-2.069,6.735-2.886c0.698,1.227,0.197,3.651,2.886,2.886c1.499-1.639-0.672-2.528-0.481-4.33
		c3.304-0.505,2.95-4.464,4.33-6.734c0.876-1.44,2.722-3.158,4.33-4.811c5.953-6.124,12.895-9.501,23.091-13.952
		c9.564-4.175,16.89-7.253,28.381-8.658c1.047-0.128,2.327-0.936,3.368-0.962c1.379-0.034,2.54,0.683,3.848,0.482
		c1.796-0.277,3.848-1.685,6.254-2.406c2.295-0.689,4.927-0.696,6.734-1.443C122.5-47.921,123.871-50.938,127.908-50.707z
		 M145.707-43.492c1.038-1.178,0.359-3.558-1.443-3.367C142.786-45.842,143.163-43.098,145.707-43.492z M167.835-42.048
		c0.816-0.808,0.382-2.825-1.443-2.406C166.297-43.077,166.332-41.83,167.835-42.048z M113.958-40.124
		c1.768,0.463,1.912-2.363,0.481-2.405C114.015-41.679,112.913-41.126,113.958-40.124z M328.506-35.313
		c0.111-1.714-0.69-2.515-2.403-2.405C325.968-35.975,327.499-34.445,328.506-35.313z M83.651-30.021
		c1.403,0.708,1.403-2.151,0-1.444C83.651-30.984,83.651-30.503,83.651-30.021z M92.311-28.578
		C88.598-28.42,92.06-24.961,92.311-28.578L92.311-28.578z M74.03-17.033c2.688-2.054,12.996-9.278,6.254-10.584
		c-0.428,0.856-1.344,1.224-0.962,2.887c-7.479,4.547-18.109,5.943-22.61,13.469C64.167-11.994,68.212-12.588,74.03-17.033z
		 M68.738-24.73c0.853,1.211,2.886-1.207,0.962-1.443C69.586-25.487,68.909-25.364,68.738-24.73z M57.674-16.552
		c1.224-0.059,1.866-0.7,1.924-1.925c-0.614-0.025-0.666-0.617-1.442-0.48C57.75-18.4,57.521-17.668,57.674-16.552z M54.788-16.552
		c1.268,0.146,1.241-1.005,1.443-1.925c-0.481,0-0.962,0-1.443,0C54.788-17.835,54.788-17.194,54.788-16.552z M232.776-13.185
		c0.556-0.57,0.544-1.702,0.481-2.886C228.982-18.636,227.319-12.281,232.776-13.185z M46.129-10.779
		c-0.337,1.666,1.686,1.725,2.405,0.962C48.871-11.483,46.849-11.544,46.129-10.779z M537.763-9.817c0.32,0,0.642,0,0.963,0
		c0.748-1.183-1.633-1.415-1.444-0.481C537.575-10.271,537.853-10.227,537.763-9.817z M520.448-7.893
		c0.955,0.006,0.61,1.312,1.922,0.962c0.208-0.916,1.038-1.208,0.959-2.406C522.233-10.379,520.331-9.513,520.448-7.893z
		 M212.574-4.045c0.396,1.361-0.68,1.247-0.48,2.406c7.183-0.035,11.541-2.891,14.431-7.216
		C219.705-9.421,218.424-4.45,212.574-4.045z M49.978-4.045c0.631,0.618,1.773,0.618,2.405,0c0.135-1.096-0.115-1.808-0.959-1.924
		C51.278-4.989,50.12-5.027,49.978-4.045z M412.21-3.564c2.24-0.008,2.24-2.397,0-2.405C411.592-5.338,411.592-4.198,412.21-3.564z
		 M396.816-0.677c1.313,0.351,0.969-0.956,1.924-0.962c-0.031-1.412-1.1-1.786-1.924-2.406C395.968-2.823,395.581-1.7,396.816-0.677
		z M11.013-2.602c0,0.32,0,0.641,0,0.962c0.292,0.027,0.568,0.071,0.48,0.48c0.321,0,0.642,0,0.962,0
		c0.028-0.293,0.073-0.57,0.481-0.48c0-0.321,0-0.642,0-0.962c-0.292-0.028-0.569-0.072-0.481-0.481c-0.32,0-0.641,0-0.962,0
		C11.466-2.791,11.421-2.513,11.013-2.602z M24.963-1.159c0.48,0,0.962,0,1.443,0c0.062-0.864-0.477-1.126-1.443-0.962
		C24.963-1.8,24.963-1.48,24.963-1.159z M36.027,2.689c1.312,0.352,0.968-0.956,1.924-0.962c-0.058-1.225-0.7-1.867-1.924-1.924
		C35.37,0.419,35.37,2.075,36.027,2.689z M53.826,2.689c0.405-0.559,0.633-1.291,0.481-2.405
		C52.539-0.178,52.395,2.647,53.826,2.689z M206.801,2.209c0.481,0,0.961,0,1.442,0c0.135-1.257-0.174-2.069-1.442-1.924
		C206.801,0.924,206.801,1.567,206.801,2.209z M7.645,3.171c0.625-0.64,0.633-1.79-0.48-1.924C6.539,1.886,6.53,3.037,7.645,3.171z
		 M194.293,4.133C193.706-3.104,187.88,6.499,194.293,4.133L194.293,4.133z M-0.533,4.614c1.329-0.274,2.698-0.509,2.406-2.405
		C1.313,1.806,0.582,1.576-0.533,1.728C-0.681,2.852-1.475,3.714-0.533,4.614z M55.75,8.462c-1.066,2.141-2.485,3.929-3.848,5.773
		c-1.343,0.741-3.73,0.438-3.849,2.404c6.163-0.388,13.283,1.588,13.951-3.367c0.367-2.729-3.169-6.41-6.254-7.697
		C55.75,6.538,55.75,7.501,55.75,8.462z M136.086,11.349c-0.425-0.371-1.374,0.294-1.444,0.48
		C133.953,13.666,137.038,12.177,136.086,11.349z M41.799,15.678c0.706,1.972,2.598,2.159,4.33,0.962
		c-0.35-1.094-0.43-2.457-0.962-3.367C43.333,13.363,42.002,13.954,41.799,15.678z M24.963,16.159
		c1.096,0.134,1.808-0.116,1.924-0.962C26.173,14.44,24.738,14.662,24.963,16.159z M-24.104,18.083
		c1.64,0.363,1.876-1.838,0.481-1.924C-23.773,16.808-24.307,17.077-24.104,18.083z M124.54,22.413
		c1.042,0.984,2.993,0.167,3.368-0.962c-2.505-1.103,1.025-1.818,0.481-3.849c-0.419-0.706-0.72-1.525-1.925-1.443
		C126.823,18.646,124.803,19.394,124.54,22.413z M24.481,20.008c1.225-0.058,1.866-0.7,1.924-1.924
		C25.275,16.781,23.179,18.877,24.481,20.008z M-35.65,20.488c1.713,0.11,2.516-0.691,2.405-2.405
		C-35.189,17.743-35.991,18.544-35.65,20.488z M33.141,21.932c1.202,0.962,3.784,0.222,3.367-1.924
		C35.306,19.045,32.724,19.786,33.141,21.932z M-40.46,23.856c1.983,0.25,2.45-2.604,1.444-3.848
		C-41.242,20.27-41.901,22.354-40.46,23.856z M40.837,22.413c0.722,0.768,2.026-0.015,2.406-0.962
		C42.285,20.449,41.188,21.435,40.837,22.413z M-1.495,22.413c0.483-0.003,0.573,0.389,0.962,0.48c0-0.483,0.39-0.573,0.481-0.962
		c-0.483,0-0.574-0.391-0.962-0.48C-1.012,21.932-1.403,22.022-1.495,22.413z M115.401,25.78c2.77,0.991,3.954-3.03,1.924-3.848
		C116.599,23.131,115.835,24.292,115.401,25.78z M25.925,22.894c-0.337,1.666,1.685,1.724,2.404,0.962
		C28.667,22.19,26.643,22.13,25.925,22.894z M-14.484,25.299c0.321,0,0.642,0,0.962,0c0.539-0.694,0.52-1.172-0.48-1.443
		C-14.029,24.472-14.618,24.521-14.484,25.299z M21.115,26.262c0.922,0.866,2.962,0.134,2.886-1.444
		C23.079,23.953,21.039,24.682,21.115,26.262z M57.674,28.186c1.224-0.058,1.866-0.7,1.924-1.924
		c-0.614-0.027-0.666-0.618-1.442-0.482C57.882,26.78,56.781,27.333,57.674,28.186z M-59.221,28.666
		c1.223-0.058,1.865-0.701,1.924-1.924C-58.427,25.439-60.524,27.534-59.221,28.666z M33.141,28.666
		c1.116,0.155,1.846-0.078,2.404-0.48C36.049,25.189,32.552,26.317,33.141,28.666z M23.039,29.628
		c1.267,0.145,1.58-0.667,1.443-1.924C23.185,27.736,22.17,28.803,23.039,29.628z M501.203,28.186c0,0.32,0,0.641,0,0.962
		c0.293,0.028,0.571,0.073,0.481,0.481c0.321,0,0.642,0,0.963,0c0.027-0.293,0.07-0.569,0.478-0.481c0-0.321,0-0.642,0-0.962
		c-0.289-0.028-0.567-0.072-0.478-0.481c-0.321,0-0.642,0-0.963,0C501.657,27.997,501.614,28.274,501.203,28.186z M542.574,31.553
		c0.541,0.102,0.748,0.533,0.96,0.961c1.581-0.184,2.125-1.407,3.37-1.924C546.387,26.939,542.68,28.538,542.574,31.553z
		 M493.988,32.515c2.282,0.808,2.654-2.768,0.481-2.405C494.066,30.667,493.834,31.399,493.988,32.515z M184.191,32.994
		c2.856,0.346,2.856-2.752,0-2.406C183.573,31.223,183.573,32.365,184.191,32.994z M-81.831,33.958
		c1.247,1.105,3.255,0.054,2.887-1.924C-80.183,30.936-81.667,32.511-81.831,33.958z M-73.171,33.958
		c1.711,0.111,2.515-0.692,2.404-2.405C-72.71,31.212-73.512,32.013-73.171,33.958z M532.474,38.288
		c2.126,0.207,3.046-0.801,3.366-2.405C534.458,34.032,531.718,35.261,532.474,38.288z M-94.338,38.288
		c1.012,1.056,2.138,0.1,2.886-0.481c0.082-1.205-0.74-1.505-1.444-1.924C-93.043,37.017-94.567,36.776-94.338,38.288z
		 M493.025,36.364C489.133,34.084,491.905,40.462,493.025,36.364L493.025,36.364z M24.481,38.288
		c0.542,0.102,0.75,0.536,0.962,0.962c1.354-0.09,2.048-0.836,1.924-2.406C26.268,35.8,24.368,36.67,24.481,38.288z M-85.198,37.806
		c-0.022,0.662,0.226,1.056,0.48,1.444c1.268,0.144,1.58-0.666,1.443-1.924C-84.111,37.29-84.771,37.432-85.198,37.806z
		 M-96.744,41.174c1.354-0.09,2.048-0.835,1.924-2.405C-96.601,38.49-97.795,40.063-96.744,41.174z M483.406,40.692
		c0.148-0.651,0.686-0.918,0.481-1.924C482.247,38.406,482.008,40.604,483.406,40.692z M336.203,41.174
		c-2.012,2.961-3.924,6.019-5.295,9.621c6.875-1.806,17.269-2.593,15.877-11.064C343.263,40.216,339.587,40.551,336.203,41.174z
		 M0.429,42.136c0.273,2.182,2.756-2.756,0.482-0.482C0.681,41.884,0.357,41.562,0.429,42.136z M176.013,42.617
		C174.552,44.236,177.792,44.074,176.013,42.617L176.013,42.617z M27.368,45.984c1.702,0.291,2.784-2.494,0.96-2.886
		C27.474,43.649,26.135,44.758,27.368,45.984z M353.039,47.428c0.104-0.539,0.536-0.75,0.963-0.962
		c-0.211-1.392-1.014-2.193-2.403-2.406C350.123,45.076,350.498,47.82,353.039,47.428z M464.646,54.641
		c-4.134,1.48-8.746,2.482-12.508,4.33c0.086-1.047-0.396-1.532-1.444-1.442c-4.624,1.632-6.068,6.439-9.142,9.62
		c1.52,0.237,1.699-0.867,3.367-0.481c2.086,8.345-0.865,21.244,0.963,31.751c8.1-0.571,16.364,0.302,25.493,0
		c-1.394-7.449,0.908-13.231-0.481-20.686c1.59-0.653,3.781-0.711,3.853-2.885c-0.893-1.738-2.979,0.215-3.371-1.443
		c-0.066-3.541-0.975-6.806,0.963-9.139c-1.076-1.652-1.879-3.574-1.444-6.735c0.649-1.274,2.537-1.313,2.403-3.369
		c-0.356-1.405-2.595-0.932-2.403-2.885c0.051-3.479,4.697-2.362,4.33-6.254C469.148,43.794,467.335,50.892,464.646,54.641z
		 M478.113,48.39c1.723,0.147,3.132-3.037,1.444-3.368C478.676,45.754,476.704,46.839,478.113,48.39z M182.267,47.908
		c-0.111-0.851,0.484-2.408-0.962-1.924C181.17,47.081,181.421,47.792,182.267,47.908z M344.863,50.794
		c0.865-0.922,0.135-2.962-1.443-2.886C342.375,49.007,343.244,50.909,344.863,50.794z M-106.364,50.794
		c0.763-0.719,0.704-2.741-0.962-2.404C-108.09,49.109-108.03,51.131-106.364,50.794z M-24.104,54.161
		c1.54-0.062,2.117-1.088,1.924-2.885c-0.641,0-1.283,0-1.924,0C-24.762,51.891-24.762,53.545-24.104,54.161z M-126.087,53.2
		c0.482,0,0.572,0.39,0.962,0.479c-0.002-0.481,0.389-0.571,0.48-0.961c-0.482,0-0.573-0.39-0.962-0.479
		C-125.604,52.719-125.995,52.809-126.087,53.2z M-122.72,54.161c1.187,1.545,2.97-1.121,0.962-1.442
		C-121.875,53.406-122.55,53.531-122.72,54.161z M115.881,54.161c0.321,0,0.641,0,0.962,0c0-0.32,0-0.64,0-0.961
		c-0.321,0-0.641,0-0.962,0C115.881,53.521,115.881,53.841,115.881,54.161z M-19.775,57.53c1.654,0.753,2.285-3.222,0.481-2.888
		C-19.875,55.389-20.832,56.519-19.775,57.53z M331.394,57.53c-0.446-0.838,0.016-2.582-1.445-2.406
		C329.853,56.502,329.89,57.747,331.394,57.53z M110.589,57.53c0.321,0,0.643,0,0.962,0c0-0.321,0-0.643,0-0.963
		c-0.32,0-0.641,0-0.962,0C110.589,56.886,110.589,57.209,110.589,57.53z M179.38,57.53c-0.154,1.115,0.079,1.848,0.481,2.405
		c1.818,0.051,2.587-0.943,2.886-2.405C182.104,56.843,180.022,56.843,179.38,57.53z M23.039,60.895
		c1.377-0.066,0.88-2.006,0.962-3.366c-0.642,0-1.283,0-1.924,0C21.371,58.291,21.084,61.349,23.039,60.895z M340.533,61.378
		c1.105-1.345,0.267-3.826-1.924-3.368C337.504,59.356,338.342,61.838,340.533,61.378z M514.192,61.378
		c2.083,0.73,2.596-2.198,0.959-2.405C514.952,59.889,513.781,59.842,514.192,61.378z M178.899,63.303
		c1.505,0.223,2.147-0.419,1.924-1.925C179.499,59.881,177.402,61.976,178.899,63.303z M319.368,63.303
		c-0.031,5.465-7.505,5.911-4.812,12.508c-0.717,0.724-2.742,0.141-2.404,1.922c1.512,0.243,1.966-1.132,2.404,0.481
		c-0.306,10.68-0.442,18.96-0.478,30.786c1.226,0.76,5.022,0.76,6.252,0c0.614-3.876-1.431-10.409,1.444-12.026
		c0.184-1.789-1.951-1.257-1.444-3.366c0-8.179,0-16.356,0-24.534c1.468-2.858,3.39-5.268,5.293-7.697
		C323.137,59.895,320.837,62.222,319.368,63.303z M-21.7,65.227c1.86,0.374,2.791-2.946,0.962-3.369
		C-21.799,62.3-22.894,63.976-21.7,65.227z M24.963,64.743c1.353-0.09,2.048-0.836,1.924-2.403
		c-0.616-0.028-0.667-0.617-1.444-0.482C24.862,62.605,23.907,63.733,24.963,64.743z M429.044,63.303
		c1.229-0.055,2.479-0.09,2.408-1.445C430.223,61.913,428.978,61.948,429.044,63.303z M94.234,64.743c0-0.478,0-0.959,0-1.442
		c-0.481,0-0.962,0-1.443,0C92.703,64.352,93.184,64.831,94.234,64.743z M301.567,70.518c-1.948,6.694,1.558,17.146-0.481,24.532
		c1.146,1.356,5.032-2.611,4.811,1.446c-6.235-2.28-5.159,8.729-4.329,13.467c2.286,0.202,3.935-0.232,5.293-0.961
		c-0.349-5.028-0.06-7.718,0-12.987c1.08-0.846,3.458-0.39,3.368-2.403c-1.191-1.445-2.861,0.094-3.368-1.445
		c0.283-5.328-1.089-12.312,1.924-14.911c-5.657-2.734,3.631-9.317,0-12.985C306.312,66.528,302.624,66.887,301.567,70.518z
		 M475.228,69.557c0.642,0,1.283,0,1.922,0c0.689-0.643,0.689-2.725,0-3.369C474.961,65.729,474.124,68.212,475.228,69.557z
		 M26.887,70.036c1.567,0.125,2.314-0.571,2.405-1.923c-0.418-0.706-0.72-1.526-1.925-1.446
		C26.919,67.624,25.803,68.959,26.887,70.036z M175.051,67.632c-0.336,1.664,1.686,1.723,2.406,0.96
		C177.793,66.928,175.768,66.869,175.051,67.632z M432.893,67.15c-2.399,7.873-1.551,21.521-0.959,30.786
		c1.519-0.188,2.705,0.284,3.366,0c3.52-1.503,0.341-12.564,0.963-16.354c0.454-1.151,1.257-1.952,2.408-2.406
		c-3.853-1.612-0.775-10.458-3.371-12.026C434.498,67.15,433.696,67.15,432.893,67.15z M-24.586,70.518
		c0.765-0.721,0.704-2.744-0.962-2.404C-26.311,68.83-26.251,70.854-24.586,70.518z M184.191,70.518
		C182.73,72.138,185.969,71.978,184.191,70.518L184.191,70.518z M117.325,73.884c0.763-0.716,0.703-2.74-0.962-2.403
		C115.599,72.197,115.659,74.221,117.325,73.884z M91.829,74.846c1.105-1.245,0.056-3.256-1.924-2.884
		C89.011,72.995,89.833,75.232,91.829,74.846z M-17.37,74.365c0.321,0,0.641,0,0.962,0c0.539-0.692,0.52-1.174-0.48-1.444
		C-16.915,73.536-17.504,73.589-17.37,74.365z M-0.052,75.811c0.205-0.92,1.375-0.873,0.962-2.406
		c-0.616-0.025-0.668-0.616-1.444-0.481C-1.195,73.54-1.371,75.799-0.052,75.811z M-150.621,73.884
		C-152.363,76.158-147.805,74.524-150.621,73.884L-150.621,73.884z M157.252,81.1c-4.131-5.359-11.259-2.336-18.28-1.445
		c-1.064,0.695,0.605,1.177-0.48,1.445c-2.44-0.196-2.809,1.681-4.33,2.405c0.471,5.393-0.553,9.454,0.48,14.432
		c1.767,1.738,5.739,2.263,7.698,2.404c-0.989,1.793,0.04,3.149,0.962,4.327c3.066-1.199,9.712,1.49,12.507-0.961
		c0.259-2.181-2.563-1.284-2.405-3.366c4.032-0.294,4.348-4.311,6.734-6.252c1.742,3.472-2.361,4.921-3.368,7.215
		c0.088,2.157,1.017,3.473,2.406,4.329c-0.201,2.285,0.235,3.935,0.962,5.291c3.368,1.011,8.667,0.527,11.064-0.961
		c0.589-7.975,0.964-19.715,0.962-29.823c-3.746-1.988-10.402-0.698-11.546,2.884c0.015,1.922,2.897,6.753-0.959,6.735
		C159.016,86.721,158.956,83.312,157.252,81.1z M96.639,80.617c0.656-0.612,0.744-2.354-0.48-2.403
		C95.503,78.828,95.415,80.57,96.639,80.617z M127.427,80.617c0.823,0.869,1.89-0.145,1.924-1.442
		C128.093,79.04,127.28,79.352,127.427,80.617z M-21.218,82.544c1.602,0.191,2.684-2.594,0.962-2.886
		C-20.683,80.514-21.599,80.88-21.218,82.544z M3.315,82.062c1.836,0.394,1.862-1.024,2.406-1.923
		C4.612,79.087,3.037,80.279,3.315,82.062z M28.33,81.583c0.321,0,0.642,0,0.963,0c0.537-0.695,0.519-1.177-0.481-1.443
		C28.785,80.755,28.194,80.806,28.33,81.583z M428.567,82.062c0-0.321,0-0.641,0-0.961C427.678,79.504,426.22,82.544,428.567,82.062
		z M477.631,82.062c0,0.32,0,0.64,0,0.961c0.294,0.029,0.571,0.072,0.481,0.481c0.321,0,0.643,0,0.959,0
		c0.031-0.294,0.074-0.569,0.481-0.481c0-0.321,0-0.641,0-0.961c-0.289-0.027-0.567-0.07-0.481-0.479c-0.316,0-0.638,0-0.959,0
		C478.085,81.874,478.042,82.152,477.631,82.062z M-159.28,83.988c0.482-0.004,0.573,0.388,0.962,0.481
		c-0.002-0.485,0.389-0.575,0.481-0.963c-0.483,0.002-0.574-0.39-0.962-0.481C-158.797,83.509-159.188,83.599-159.28,83.988z
		 M-2.938,87.837c1.54-0.065,2.116-1.093,1.924-2.888C-3.01,84.563-3.833,86.799-2.938,87.837z M21.115,87.837
		c0.14-0.981,1.301-0.943,1.442-1.927C21.086,84.082,18.822,87.298,21.115,87.837z M-176.598,94.57c0.591-1.777,2.161-7.296,0-8.66
		C-176.688,88.188-178.707,93.259-176.598,94.57z M428.085,88.796c1.351-0.09,2.048-0.836,1.922-2.404
		c-0.614-0.027-0.665-0.616-1.44-0.481C427.984,86.658,427.029,87.786,428.085,88.796z M-185.738,90.24
		c1.603-0.321,2.612-1.237,2.405-3.369c-0.56-0.4-1.291-0.632-2.405-0.479C-186.558,87.896-186.784,88.935-185.738,90.24z
		 M-145.329,89.759c1.312,0.353,0.968-0.955,1.924-0.961c-0.273-1.171-0.413-2.473-1.924-2.402
		C-146.178,87.615-146.564,88.737-145.329,89.759z M-21.7,89.759c2.044,0.442,2.055-1.151,1.924-2.886
		C-21.755,86.506-22.804,88.514-21.7,89.759z M474.747,88.318c0-0.321,0-0.643,0-0.963
		C473.858,85.758,472.401,88.798,474.747,88.318z M295.796,89.279c1.222-0.059,1.863-0.703,1.922-1.924
		C296.211,87.13,295.573,87.774,295.796,89.279z M360.255,87.837c-0.143,1.266,0.666,1.577,1.924,1.442
		c-0.021-0.662,0.226-1.055,0.48-1.442C362.027,87.218,360.888,87.218,360.255,87.837z M-126.087,90.24
		c0.761-0.719,0.703-2.74-0.962-2.403C-127.813,88.553-127.753,90.577-126.087,90.24z M323.215,91.685
		c1.652-0.109,2.095-1.433,2.404-2.887c-0.556-0.401-1.29-0.633-2.404-0.479C322.527,88.958,322.527,91.041,323.215,91.685z
		 M-155.913,91.203c2.283,0.807,2.652-2.768,0.481-2.405C-155.836,89.357-156.065,90.088-155.913,91.203z M-74.615,94.57
		c2.831,1.025,2.708-5.69,0.481-5.293C-75.851,90.538-74.455,92.261-74.615,94.57z M117.806,89.759
		c-0.165-0.388-1.276-0.579-1.443,0C116.044,90.872,118.243,90.798,117.806,89.759z M96.639,92.644c0.998-0.986,0-2.438-1.442-2.403
		C95.103,91.618,95.136,92.867,96.639,92.644z M4.277,92.644c1.188,1.547,2.972-1.119,0.963-1.442
		C5.125,91.889,4.448,92.014,4.277,92.644z M295.796,91.685c-0.074,1.196,0.756,1.488,0.959,2.404
		c1.39-0.212,2.194-1.015,2.404-2.404C298.521,90.996,296.438,90.996,295.796,91.685z M115.401,94.089
		c1.05-1.11-0.143-2.686-1.924-2.404C113.352,93.251,114.047,93.998,115.401,94.089z M-162.647,96.496
		c1.991,0.226,1.279-2.251,1.924-3.371C-162.693,92.885-163.435,95.465-162.647,96.496z M28.811,94.089c0.321,0,0.641,0,0.962,0
		c0-0.321,0-0.641,0-0.962c-0.321,0-0.641,0-0.962,0C28.811,93.448,28.811,93.768,28.811,94.089z M516.118,95.533
		C518.208,91.303,511.424,94.703,516.118,95.533L516.118,95.533z M-151.583,95.05c0.321,0,0.641,0,0.962,0
		c0.026-0.617,0.618-0.666,0.481-1.442c-0.481,0-0.962,0-1.443,0C-151.583,94.089-151.583,94.57-151.583,95.05z M477.631,94.089
		c0,0.32,0,0.64,0,0.961C479.577,96.993,480.27,92.276,477.631,94.089z M-24.586,97.457c1.259,0.135,2.071-0.176,1.924-1.442
		c-0.615-0.029-0.666-0.618-1.443-0.481C-24.257,96.183-24.791,96.451-24.586,97.457z M182.267,97.457
		c0.757-0.714,0.535-2.149-0.962-1.924C181.17,96.629,181.421,97.342,182.267,97.457z M-175.154,100.345
		c2.365,0.281,2.588-1.582,2.405-3.849C-174.968,96.262-176.391,98.638-175.154,100.345z M-72.209,97.937
		c0.482,0,0.573,0.39,0.962,0.481c-0.002-0.481,0.389-0.571,0.48-0.961c-0.482,0.002-0.572-0.39-0.962-0.481
		C-71.727,97.459-72.118,97.549-72.209,97.937z M-140.039,100.345c2.408,0.908,2.683-3.309,0.481-2.888
		C-140.138,98.205-141.094,99.33-140.039,100.345z M310.226,99.863c1.506,0.223,2.147-0.419,1.924-1.927
		C310.826,96.441,308.729,98.538,310.226,99.863z M93.272,100.345c0.767-0.725-0.015-2.028-0.962-2.408
		C91.546,98.655,91.607,100.681,93.272,100.345z M-157.837,100.822c2.275,0.191,4.015-0.153,5.772-0.478
		C-151.833,97.439-158.208,97.999-157.837,100.822z M1.391,100.822c1.354-0.09,2.048-0.836,1.924-2.404c-0.48,0-0.962,0-1.442,0
		C1.467,98.977,1.237,99.708,1.391,100.822z M47.572,105.151c-1.062,1.024-3.916,0.253-3.848,2.406
		c1.926,2.082,7.581,0.438,11.064,0.961c0.786-4.412,0.098-8.265-3.368-9.623C50.685,101.53,49.683,103.897,47.572,105.151z
		 M-145.811,101.306c1.641,0.362,1.878-1.838,0.482-1.925C-145.482,100.031-146.015,100.3-145.811,101.306z M-69.323,101.785
		c0.006-0.955,1.312-0.61,0.962-1.922c-0.616-0.027-0.667-0.619-1.443-0.482C-70.459,99.992-70.547,101.736-69.323,101.785z
		 M117.325,102.267c0.027-0.292,0.071-0.567,0.48-0.481C117.475,96.705,112.244,101.938,117.325,102.267z M-18.332,101.785
		c-0.449,1.154-1.932,1.276-1.443,3.368c2.788,0.063,2.754-2.699,3.368-4.809c-0.798-0.805-2.824-0.382-4.33-0.481
		C-21.076,101.645-18.68,100.692-18.332,101.785z M-126.568,103.229c2.044,0.442,2.054-1.152,1.924-2.885
		C-126.641,99.959-127.462,102.196-126.568,103.229z M134.642,104.67c2.085,0,4.169,0,6.254,0c-0.08-1.362-0.882-2.004-0.962-3.366
		c-2.672,0.429-3.565-0.924-5.772-0.959C134.259,101.848,133.837,103.876,134.642,104.67z M-182.37,104.67
		c0.382,3.307-1.147,8.522,1.924,9.142c3.007-0.895,2.684-6.673,1.443-9.142c0.269-1.174,1.862-1.023,1.443-2.885
		c-0.615-0.027-0.667-0.615-1.443-0.479C-179.755,102.799-180.878,103.919-182.37,104.67z M-172.268,102.267
		c0.755-0.045,1.668,0.064,1.442-0.961c-0.32,0-0.641,0-0.962,0C-171.786,101.789-172.176,101.879-172.268,102.267z
		 M-99.148,105.635c1.463-0.041,1.126-3.146,0.481-3.85c-0.481,0-0.962,0-1.443,0C-100.776,102.596-101.221,106.096-99.148,105.635z
		 M324.658,104.192c1.224-0.059,1.866-0.702,1.925-1.926C325.255,100.771,323.163,102.865,324.658,104.192z M-107.326,106.115
		c1.463-0.04,1.126-3.144,0.48-3.849c-0.48,0-0.962,0-1.443,0C-108.954,103.073-109.399,106.577-107.326,106.115z M-76.058,105.635
		c0.408-0.4,1.316-3.76-0.481-3.368C-77.782,103.179-77.543,105.034-76.058,105.635z M-170.826,104.192
		c0.582,2.946-1.201,8.253,0.962,9.619c2.209-3.467-0.658-6.354,0.962-10.582c-0.615-0.027-0.666-0.618-1.442-0.481
		C-170.371,103.362-170.959,103.414-170.826,104.192z M-134.747,107.56c1.125-0.159,1.989-0.577,2.886-0.959
		c0-0.964,0-1.929,0-2.888c-0.91-0.534-2.272-0.616-3.367-0.963C-136.162,103.923-135.816,106.901-134.747,107.56z
		 M-115.023,106.115c0.286-0.345,0.573-3.398-0.963-3.369C-115.904,104.11-116.398,106.048-115.023,106.115z M-90.97,105.635
		c0.787-0.78,0.579-3.02-0.963-2.887C-91.924,104.024-92.2,105.578-90.97,105.635z M-83.274,105.635
		c0.74-0.731,0.855-3.3-0.962-2.887C-84.978,103.482-85.094,106.048-83.274,105.635z M-27.953,105.635
		c0.571,0.429,3.592,0.394,3.367-1.442C-25.154,102.267-28.635,103.38-27.953,105.635z M-74.615,105.635
		c0.631,0.617,1.774,0.617,2.406,0c0.082-1.203-0.74-1.505-1.443-1.924C-73.659,104.664-74.965,104.32-74.615,105.635z
		 M443.96,104.192c0,0.639,0,1.282,0,1.923c0.622,0.571,3.049,0.227,2.881-1.445C446.833,103.354,444.575,103.531,443.96,104.192z
		 M451.657,105.635c0.356,1.373,3.089,1.962,4.33,0.962c0-0.803,0-1.605,0-2.404C454.675,103.233,451.528,103.65,451.657,105.635z
		 M-161.686,106.115c0.167-1.77-1.753-1.455-2.886-1.923C-164.956,106.189-162.72,107.008-161.686,106.115z M-157.837,104.67
		c0,0.481,0,0.963,0,1.445c1.489,1.021,4.938,0.673,4.33-1.923C-155.013,104.29-157.04,103.868-157.837,104.67z M-149.178,107.076
		c1.712,0.111,2.516-0.691,2.405-2.406c-0.568-0.552-1.7-0.542-2.886-0.478C-149.723,105.379-149.731,106.508-149.178,107.076z
		 M-143.405,104.67c0,0.643,0,1.284,0,1.927c0.7,0.708,3.148,0.708,3.848,0c0-0.803,0-1.605,0-2.404
		C-140.942,104.247-142.706,103.927-143.405,104.67z M-127.049,107.076c1.353,0.411,1.972,1.552,3.849,1.446
		C-120.822,104.94-127.322,102.296-127.049,107.076z M424.716,106.597c1.508,0.223,2.147-0.419,1.927-1.927
		C425.314,103.175,423.219,105.27,424.716,106.597z M430.007,106.115c1.101,1.043,3.003,0.176,2.886-1.445
		C431.796,103.631,429.894,104.496,430.007,106.115z M436.742,106.115c0.618,0.657,2.274,0.657,2.889,0c0-0.48,0-0.962,0-1.445
		C438.531,103.631,436.627,104.496,436.742,106.115z M460.793,104.67c0,0.481,0,0.963,0,1.445c1.065,0.44,3.206,1.068,3.853,0.481
		c0-0.643,0-1.284,0-1.927C463.945,103.966,461.495,103.966,460.793,104.67z M38.432,110.444c0.655-1.271,0.569-3.28,0.962-4.81
		C36.454,101.699,32.835,111.298,38.432,110.444z M470.417,106.115c0.7,0.708,3.147,0.708,3.849,0
		C474.449,103.627,470.616,104.784,470.417,106.115z M479.557,106.115c0.643,0.687,2.726,0.687,3.367,0
		C483.167,103.736,479.565,104.631,479.557,106.115z M488.699,106.597c1.237,1.182,4.087,1.284,3.848-1.445
		C491.298,104.149,488.444,104.615,488.699,106.597z M525.737,108.041c1.135,0.148,0.896,1.668,2.407,1.442
		c0.191-1.251,1.433-1.45,1.44-2.883c-1.131-0.149-0.893-1.672-2.403-1.447C526.754,106.168,525.717,106.575,525.737,108.041z
		 M-8.23,106.597c-0.16,1.762,0.536,2.674,0.962,3.848c0.801,0,1.603,0,2.406,0c0.779-0.951,1.547-3.5,0.48-4.81
		C-5.866,105.751-7.101,106.123-8.23,106.597z M11.493,106.597c-0.232,1.836,0.137,3.069,0.962,3.848c0.803,0,1.604,0,2.406,0
		C17.46,107.692,14.943,104.091,11.493,106.597z M21.595,110.444c1.279-0.004,2.748,0.181,3.368-0.481
		c-0.042-2.686-1.532-3.919-3.848-4.328C20.18,106.81,20.525,109.787,21.595,110.444z M31.217,110.444
		c0.952-1.094-0.512-2.688,0-4.81c-0.481,0-0.962,0-1.443,0C30.068,107.424,28.863,110.715,31.217,110.444z M-32.764,110.924
		c0.935-1.403,0.68-4.946-1.443-4.809C-34.98,107.359-34.728,110.902-32.764,110.924z M515.155,108.041
		c0.775,0.669,0.513,2.374,1.444,2.883c1.605,0,3.207,0,4.808,0C521.798,108.811,517.246,103.742,515.155,108.041z M-17.851,109
		c0.463,1.14,0.844,2.364,2.886,1.924c0.806-0.796,0.383-2.824,0.48-4.327C-16.217,106.788-17.548,107.379-17.851,109z
		 M95.677,109.483c0.91,0.107,1.062-0.542,1.924-0.481c0.155-1.115-0.077-1.846-0.48-2.401c-0.481,0-0.962,0-1.443,0
		C95.021,107.211,95.021,108.867,95.677,109.483z M496.873,109.963c0.881,0.736,3.938,0.736,4.812,0c0-0.801,0-1.601,0-2.403
		C500.024,106.628,495.596,106.422,496.873,109.963z M505.05,107.56c-0.25,3.099,4.342,3.514,6.738,2.403c0-0.801,0-1.601,0-2.403
		C509.486,107.735,506.954,106.254,505.05,107.56z M-70.285,109c0.48,0,0.962,0,1.442,0c0-0.478,0-0.959,0-1.442
		c-0.32,0-0.641,0-0.962,0C-69.83,108.172-70.421,108.225-70.285,109z M-25.066,112.371c2.339,0.254,0.861-3.309,2.405-3.849
		C-24.289,108.879-26.336,110.629-25.066,112.371z M-163.609,113.812c2.123,0.137,2.377-3.406,1.443-4.81c-0.481,0-0.962,0-1.443,0
		C-164.345,109.877-164.345,112.935-163.609,113.812z M-157.837,112.849c0.918,0.207,0.872,1.378,2.405,0.963
		c1.257-0.509,1.574-1.958,1.443-3.849C-156.149,108.401-158.178,110.386-157.837,112.849z M-108.77,113.812
		c0.802,0,1.604,0,2.406,0c0.186-0.536,0.671-4.588-1.443-4.328C-108.795,110.257-108.923,111.896-108.77,113.812z M-98.186,113.812
		c0.793-0.936-0.103-3.097-0.481-4.328c-0.481,0-0.962,0-1.443,0C-99.958,111.415-100.888,114.428-98.186,113.812z M254.424,111.407
		c0.118,0.688,0.795,0.811,0.964,1.443c1.462-0.3,2.458-1.067,2.403-2.884C256.924,109.239,254.319,109.689,254.424,111.407z
		 M-149.178,113.812c2.072,0.462,1.628-3.038,0.962-3.849c-0.321,0-0.642,0-0.962,0
		C-149.885,110.664-149.885,113.11-149.178,113.812z M-143.887,112.849c0.807,0.638,1.612,1.275,3.368,0.963
		c1.031-1.294,1.031-2.557,0-3.849C-143.205,109.364-143.618,111.032-143.887,112.849z M-115.504,114.293
		c0.95-0.538,1.756-3.976,0-4.33C-115.803,111.151-117.036,114.168-115.504,114.293z M-90.97,113.812
		c0.645-0.703,0.981-3.81-0.481-3.849C-92.097,110.666-92.436,113.772-90.97,113.812z M537.282,111.889
		c0.959,0.007,0.614,1.312,1.926,0.96c0.207-0.916,1.037-1.21,0.963-2.404C539.071,109.403,537.167,110.269,537.282,111.889z
		 M-135.708,112.849c1.006,0.277,1.373,1.193,2.886,0.963c0.688-0.643,0.688-2.725,0-3.367
		C-134.785,110.247-135.856,110.936-135.708,112.849z M-125.125,113.332c0.018-1.463,0.278-3.165-1.443-2.884
		C-127.46,111.394-127.284,113.987-125.125,113.332z M-82.793,113.332c0.742-0.732,0.858-3.299-0.962-2.884
		C-84.494,111.177-84.611,113.745-82.793,113.332z M185.153,113.332c0.66,0.419,3.634,0.074,4.811-0.481
		c0.074-1.196-0.756-1.486-0.963-2.402C186.421,110.108,185.958,111.894,185.153,113.332z M223.157,112.849
		c1.512,1.041,4.095-0.169,4.81-1.443C227.275,109.591,222.276,110.078,223.157,112.849z M250.577,114.772
		c0.429-1.175,1.123-2.085,0.963-3.849C248.084,108.156,245.534,115.614,250.577,114.772z M531.03,110.924
		c-0.619-0.661-2.091-0.476-3.367-0.479C527.396,112.12,530.888,112.498,531.03,110.924z M-118.391,112.849c0.321,0,0.641,0,0.962,0
		c0.539-0.693,0.519-1.173-0.482-1.443C-117.936,112.021-118.526,112.073-118.391,112.849z M233.739,113.812
		c0.857,0.388,4.188-0.076,3.849-2.404C235.32,111.224,233.458,111.447,233.739,113.812z M258.273,113.332
		c1.323,1.269,2.643-0.181,2.885-1.443C260.058,110.844,258.16,111.713,258.273,113.332z M394.411,114.772
		c2.372,0.452,3.335-0.511,2.885-2.884C395.284,110.029,392.552,112.76,394.411,114.772z M438.186,115.256
		c1.448-0.043,1.573-4.416-0.481-3.849C436.75,111.948,435.821,115.511,438.186,115.256z M-123.201,114.293
		c1.222-0.057,1.865-0.701,1.924-1.922C-122.407,111.067-124.504,113.163-123.201,114.293z M221.231,124.875
		c1.993,0.227,1.28-2.249,1.926-3.367c-1.503-3.568-1.388-6.205-3.366-9.623c-5.152,1.003-5.936,16.576,0,17.319
		C221.58,128.457,221.956,127.035,221.231,124.875z M389.118,112.371c-0.29-0.28-2.282-1.128-2.403,0
		C384.24,114.716,390.398,116.24,389.118,112.371z M430.97,113.332c0.321,0,0.643,0,0.964,0c-0.004-0.481,0.388-0.572,0.481-0.961
		c-0.619-0.027-0.67-0.617-1.449-0.482C430.97,112.371,430.97,112.849,430.97,113.332z M444.442,115.256c0.638,0,1.28,0,1.922,0
		c0.552-0.567,0.544-1.703,0.478-2.885c-0.556-0.403-1.288-0.635-2.399-0.482C443.752,112.531,443.752,114.612,444.442,115.256z
		 M540.652,112.371c-0.023,0.661,0.224,1.053,0.478,1.44c1.269,0.145,1.578-0.664,1.444-1.923
		C541.736,111.85,541.079,111.997,540.652,112.371z M-35.168,113.332c0.321,0,0.641,0,0.962,0c0-0.321,0-0.643,0-0.961
		c-0.321,0-0.641,0-0.962,0C-35.168,112.688-35.168,113.009-35.168,113.332z M-20.256,117.178c4.187-0.348,7.122-3.805,11.064-2.885
		c3.017,0.704,3.389,4.334,6.254,5.293C-2.134,109.82-19.615,111.317-20.256,117.178z M313.593,113.332
		c0.677,0.438,4.929,1.368,4.811-0.481C316.24,113.525,314.129,111.394,313.593,113.332z M378.536,114.293
		c1.73,0.129,3.326,0.121,2.886-1.922C379.626,112.175,378.598,112.752,378.536,114.293z M472.342,113.332
		c0.916,0.205,0.869,1.376,2.404,0.961C474.938,112.752,472.699,111.549,472.342,113.332z M480.039,112.849c0,0.481,0,0.963,0,1.444
		c1.03,0.378,2.686,1.166,3.367,0.479c0-0.64,0-1.282,0-1.924C482.759,112.165,480.681,112.165,480.039,112.849z M491.583,117.178
		c0.736-0.877,0.736-3.934,0-4.807C487.728,111.415,487.865,118.025,491.583,117.178z M-67.399,114.772
		c0.625-0.636,0.633-1.789-0.482-1.924C-68.505,113.49-68.514,114.642-67.399,114.772z M114.439,121.026
		c4.788,1.165,4.788-9.341,0-8.178C113.665,114.626,113.665,119.251,114.439,121.026z M125.021,120.067
		c0.922-1.163,0.302-3.868,0.481-5.774c-1.017-0.427-1.421-1.464-2.887-1.444C121.233,114.651,120.6,121.19,125.021,120.067z
		 M138.492,119.586c3.477,0.63,4.493-7.73,0-6.735C137.243,114.593,137.819,117.331,138.492,119.586z M303.974,113.812
		c0.988-0.292,3.34,0.777,2.882-0.961c-0.96,0-1.923,0-2.882,0C303.974,113.169,303.974,113.492,303.974,113.812z M-173.711,115.737
		c0.405-0.558,0.633-1.292,0.481-2.405C-174.999,112.868-175.143,115.692-173.711,115.737z M131.756,120.067
		c2.133-0.302,1.834-5.301,0.482-6.256c-0.482,0-0.962,0-1.444,0C129.734,115.381,129.082,119.727,131.756,120.067z
		 M146.668,118.623c-2.864,3.388-5.979,6.529-5.291,13.471c-2.079-0.313-2.698,0.83-3.848,1.442
		c0.016,3.351,0.817,5.917,2.886,7.215c3.383-0.221,2.63-4.641,6.734-2.883c1.219-0.709,0.764-3.085,2.406-3.367
		c0.438,2.607,1.808,4.283,4.329,4.808c2.288-0.278,1.281-3.851,2.886-4.808c4.042,2.126-2.962,7.121,1.444,9.14
		c2.11-0.354,0.067-3.792,0.962-4.33c3.225,3.081,6.865-1.725,8.659-1.442c0.476,1.918-1.437,1.448-0.962,3.366
		c1.859,1.83,4.785,2.594,6.736,4.33c6.987,0.712,11.525-1.167,17.318,0.963c2.436-1.171,4.831-2.444,8.179-1.446
		c0.722-1.36,1.945-2.222,1.922-4.33c-0.557-1.524-2.981-1.185-3.367-2.883c3.222-1.785,5.003,1.618,4.81,4.811
		c2.269,4.467,10.995,6.569,12.026,0.478c0.612-3.607-2.343-6.516-4.81-8.655c-1.562-0.282-2.239,0.325-3.368,0.478
		c-1.594-4.605-10.28-5.555-14.91-2.885c-0.842,0.924-0.567,2.963-2.407,2.885c-1.522-0.399-2.444-1.401-3.366-2.403
		c2.544-9.682-8.23-16.023-16.837-11.547c-1.136,1.59-1.125,4.326-2.886,5.295c-2.874-2.12-5.032,3.292-6.734,0.959
		c0.776-2.877,4.305-2.533,4.33-5.772c0.014-1.99-1.582-4.19-3.849-4.33c-3.897-0.236-8.046,8.431-11.066,7.697
		c0.631-2.962,5.634-3.352,3.367-7.697c-1.513-0.24-1.88,1.048-2.886,0c0.313-1.756-0.325-2.562-0.962-3.368
		c-0.48,0-0.962,0-1.443,0C145.54,115.082,146.588,117.094,146.668,118.623z M100.007,116.219c0.134-1.096-0.116-1.809-0.962-1.926
		C98.288,115.007,98.507,116.442,100.007,116.219z M176.975,114.772c-0.228,1.513,0.599,1.967,1.443,2.405
		c0.435-0.848,1.77-0.794,1.924-1.924C179.663,114.527,178.005,113.737,176.975,114.772z M328.986,115.737
		c0.635,0.616,1.775,0.616,2.408,0c0.025-0.828-0.372-1.233-0.961-1.444C330.375,115.201,328.841,114.626,328.986,115.737z
		 M10.531,116.696c-1.844-1.265-4.8-1.663-6.734-1.442c-0.188,0.688-0.577,0.812,0,1.442c6.639,1.171,9.529,8.28,8.178,15.879
		C18.047,131.346,13.909,119.018,10.531,116.696z M89.905,114.772c-1.572,0.288-1.976,3.447-0.962,4.812c0.641,0,1.283,0,1.924,0
		C91.458,118.643,92.167,114.367,89.905,114.772z M96.639,120.067c0.675-1.57,1.616-4.521-0.48-5.295
		C95.547,115.737,95.034,119.816,96.639,120.067z M460.793,116.696c1.465,0.02,3.167,0.282,2.89-1.442
		C462.759,114.391,460.719,115.119,460.793,116.696z M23.52,120.549c1.596-0.173,0.755-2.775,0.962-4.33
		c-1.004-0.279-1.373-1.195-2.886-0.963C20.832,116.749,20.858,120.944,23.52,120.549z M80.284,116.219
		c0.118,1.482,0.486,2.717,0.962,3.849c0.802,0,1.603,0,2.405,0c0.478-1.29,0.992-2.539,0.962-4.33
		C83.383,114.646,81.22,115.542,80.284,116.219z M-169.382,120.549c0.624-0.867,1.086-4.651-0.481-4.812
		C-170.893,116.289-171.832,120.789-169.382,120.549z M38.914,121.51c0.792-1.261-0.069-4.198-0.481-5.772c-0.642,0-1.282,0-1.924,0
		C35.723,117.522,35.614,122.26,38.914,121.51z M46.129,120.067c0.641,0,1.282,0,1.924,0c0.859-1.331,0.511-4.78-1.924-4.33
		C45.405,116.515,45.405,119.284,46.129,120.067z M53.345,120.067c2.175,0.444,1.589-3.463,0.959-4.33c-0.48,0-0.959,0-1.442,0
		C52.961,117.242,52.539,119.267,53.345,120.067z M59.118,116.696c0.645,1.12-0.066,3.598,1.924,3.371
		C63.475,118.811,61.367,113.627,59.118,116.696z M67.776,120.067c0.635-0.779,1.041-4.238-0.48-4.33
		C66.299,116.271,65.365,120.325,67.776,120.067z M73.068,116.696c-0.021,1.465-0.281,3.167,1.443,2.888
		c1.348-0.257,0.891-2.317,1.444-3.369C74.972,115.189,74.05,116.352,73.068,116.696z M-164.091,120.549
		c1.876-0.051,1.76-2.091,1.925-3.853c-0.616-0.025-0.667-0.616-1.443-0.478C-164.285,117.154-165.181,119.315-164.091,120.549z
		 M-142.925,120.549c0.642,0,1.283,0,1.924,0c0.724-0.783,0.724-3.551,0-4.33C-143.78,115.424-143.912,119.089-142.925,120.549z
		 M-132.822,120.067c0.708-0.703,0.708-3.149,0-3.849C-136.61,115.236-136.364,120.811-132.822,120.067z M-25.066,119.586
		c2.137,0.211,2.617-1.229,2.405-3.367C-24.858,115.874-26.42,117.883-25.066,119.586z M31.217,121.026
		c0.733-0.877,0.733-3.935,0-4.808c-0.481,0-0.962,0-1.443,0C30.714,117.362,29.48,120.68,31.217,121.026z M336.685,119.103
		c1.354-0.091,2.049-0.836,1.924-2.406c-0.615-0.025-0.666-0.616-1.445-0.478C336.584,116.967,335.629,118.092,336.685,119.103z
		 M467.531,117.178c0.482,0,0.964,0,1.441,0c0.062-0.865-0.474-1.127-1.441-0.959C467.531,116.54,467.531,116.857,467.531,117.178z
		 M553.156,119.586c2.376,0.45,3.336-0.513,2.89-2.888C554.033,114.841,551.3,117.573,553.156,119.586z M-177.08,120.067
		c1.991,0.456,2.951-3.57,0.482-3.371C-177.049,117.655-178.163,118.986-177.08,120.067z M-157.355,120.549c0.801,0,1.603,0,2.405,0
		c0.708-0.703,0.708-3.151,0-3.853C-157.665,115.973-158.536,118.896-157.355,120.549z M-148.215,120.549
		c0.438-1.294,0.438-2.561,0-3.853C-150.319,116.129-150.319,121.116-148.215,120.549z M-126.087,119.103
		c0.006-0.958,1.312-0.613,0.962-1.925c-0.616-0.027-0.667-0.618-1.443-0.481C-127.224,117.312-127.312,119.054-126.087,119.103z
		 M-66.437,119.586c1.353-0.09,2.048-0.836,1.924-2.406c-0.648-0.15-0.918-0.685-1.924-0.481
		C-67.095,117.315-67.095,118.971-66.437,119.586z M277.996,119.103c0.686,1.238,1.128,2.723,2.885,2.887
		c0.42-1.194,0.94-3.73,0-4.812C279.644,116.082,278.16,117.657,277.996,119.103z M547.385,121.51
		c1.77-0.313,1.308-2.859,1.923-4.33C544.853,114.794,543.62,120.721,547.385,121.51z M-34.207,120.549
		c1.756,0.31,2.562-0.325,3.368-0.963c-0.301-1.465-1.069-2.459-2.887-2.406C-34.39,117.801-34.203,119.269-34.207,120.549z
		 M-181.89,121.989c2.151,0.478,2.746-3.836,0.962-4.328C-181.915,118.435-182.043,120.071-181.89,121.989z M107.704,120.067
		c0.837,0.035,1.497-0.109,1.924-0.481c-0.058-1.224-0.699-1.867-1.924-1.925C107.086,118.294,107.086,119.433,107.704,120.067z
		 M287.619,121.989c0.64,0,1.279,0,1.922,0C292.398,116.63,285.191,117.312,287.619,121.989z M325.138,122.471
		c0.642,0,1.285,0,1.926,0c0.9-1.374,0.865-5.132-1.444-4.81C324.55,118.317,324.207,121.297,325.138,122.471z M378.536,122.471
		c3.229,1.108,2.686-3.451,1.925-4.81c-0.641,0-1.286,0-1.925,0C377.8,118.536,377.8,121.596,378.536,122.471z M404.033,122.95
		c1.407-0.675,1.479-2.689,1.441-4.81C403.244,115.938,400.799,122.659,404.033,122.95z M410.766,122.95c0.803,0,1.605,0,2.404,0
		c0.846-1.08,0.23-3.617,0.963-4.81C411.029,115.808,409.06,120.479,410.766,122.95z M-115.504,122.95
		c2.058-0.186,2.291-2.198,2.406-4.327c-0.57-0.553-1.702-0.545-2.887-0.482C-116.919,119.315-116.575,122.293-115.504,122.95z
		 M-108.77,121.026c0.7,0.709,3.149,0.709,3.849,0c0-0.799,0-1.604,0-2.403c-0.557-0.403-1.288-0.635-2.405-0.482
		C-108.15,118.762-108.631,119.723-108.77,121.026z M304.933,121.989c0.643,0,1.286,0,1.927,0c0.301-0.542,0.544-4.103-1.444-3.849
		C304.558,118.785,303.927,120.927,304.933,121.989z M314.075,119.103c0,0.8,0,1.603,0,2.405c1.068,0.376,1.875,1.01,3.366,0.963
		c0.973-0.642,1.455-3.218,0.482-4.33C316.16,117.98,315.25,118.678,314.075,119.103z M419.426,122.95c0.642,0,1.282,0,1.922,0
		c1.226-1.949,0.22-5.169-2.403-4.81C419.074,119.773,418.573,122.04,419.426,122.95z M455.505,120.067
		c0.133-1.097-0.118-1.809-0.96-1.927C454.409,119.237,454.66,119.95,455.505,120.067z M508.421,123.915
		c0.908,0.108,1.057-0.544,1.922-0.481c0.904-1.632,0.877-5.831-1.922-5.293C505.767,118.07,505.767,123.986,508.421,123.915z
		 M-100.11,119.103c0,0.64,0,1.286,0,1.924c0.897,0.384,1.762,0.803,2.886,0.963c0.553-0.569,0.543-1.703,0.48-2.887
		C-97.385,118.419-99.469,118.419-100.11,119.103z M-91.452,121.989c0.641,0,1.283,0,1.924,0c0.686-0.64,0.686-2.725,0-3.366
		C-91.716,118.165-92.556,120.646-91.452,121.989z M-84.236,121.51c0.78,0.723,3.55,0.723,4.329,0c0-0.803,0-1.604,0-2.405
		C-81.416,118.19-84.972,118.65-84.236,121.51z M-75.096,121.989c0.876,0.736,3.935,0.736,4.811,0c0-0.961,0-1.922,0-2.885
		C-72.276,117.977-76.078,118.602-75.096,121.989z M-56.335,121.989c0.91,0.534,2.272,0.614,3.368,0.961
		c0.664-0.62,0.475-2.088,0.48-3.366c-0.897-0.384-1.762-0.805-2.886-0.961C-55.748,119.691-56.383,120.5-56.335,121.989z
		 M227.005,121.026c1.401,0.807,5.594,0.984,5.771-0.959c-1.46-0.785-3.075-1.413-5.289-1.444
		C227.083,119.183,226.853,119.912,227.005,121.026z M259.236,119.586c0,0.803,0,1.603,0,2.403c0.699,0.709,3.147,0.709,3.849,0
		c-0.004-1.276,0.182-2.748-0.481-3.366C261.111,118.575,260.304,119.21,259.236,119.586z M269.336,119.586
		c-0.063,1.186-0.071,2.317,0.481,2.885C273.874,123.011,272.067,116.215,269.336,119.586z M386.232,122.471
		c0.799,0,1.605,0,2.404,0c0.708-0.7,0.708-3.147,0-3.848C386.271,118.343,386.05,120.202,386.232,122.471z M394.411,121.989
		c0.63,0.489,1.773,0.472,2.403,0.961c0.807-0.797,0.384-2.824,0.481-4.327C394.876,118.284,394.125,119.619,394.411,121.989z
		 M239.032,120.549c0.023,1.448,3.927,1.489,3.366-0.481C242.375,118.613,238.47,118.575,239.032,120.549z M249.132,119.586
		c-0.153,1.115,0.078,1.848,0.48,2.403c1.187,0.062,2.318,0.074,2.886-0.479c0-0.642,0-1.282,0-1.924
		C251.857,118.896,249.774,118.896,249.132,119.586z M296.276,121.51c1.478,0.734,1.478-3.142,0-2.405
		C296.276,119.906,296.274,120.705,296.276,121.51z M427.123,121.51c0.618,0.658,2.271,0.658,2.885,0
		c-0.09-1.353-0.838-2.05-2.403-1.924C427.452,120.235,426.919,120.504,427.123,121.51z M466.568,124.875
		c1.574-1.101,0.834-3.921,0-5.291C459.158,117.867,460.704,125.99,466.568,124.875z M470.417,121.51
		c1.378,0.094,2.627,0.061,2.403-1.442C471.833,119.069,470.381,120.067,470.417,121.51z M-61.145,123.434
		c1.878,0.529,1.928-2.865,0.48-2.885C-61.246,121.297-62.202,122.422-61.145,123.434z M342.457,124.396
		c-0.552-1.534-0.959-3.214-2.403-3.848C339.959,122.722,339.658,125.111,342.457,124.396z M437.222,127.282
		c0.482,0,0.964,0,1.449,0c0.168-1.033,0.603-5.896-0.963-6.733C438.083,122.134,436.781,125.859,437.222,127.282z M444.442,127.282
		c0.638,0,1.28,0,1.922,0c0.916-1.267-1.08-2.836-1.444-4.33c0.145-1.123,1.029-2.07-0.478-2.403
		C443.674,121.907,443.674,125.92,444.442,127.282z M-39.017,122.95c0.149-0.647,0.683-0.918,0.48-1.924
		C-40.175,120.666-40.413,122.864-39.017,122.95z M-31.802,124.396c0.782-0.571,1.75-3.047,0-3.37
		C-32.583,121.598-33.549,124.072-31.802,124.396z M246.728,123.915c0.376-0.336,1.068-2.686,0-2.887
		C245.824,121.884,245.662,122.913,246.728,123.915z M497.835,121.51c-0.743,0.984-0.743,4.305,0,5.291
		c2.063,0.141,3.179-0.67,4.33-1.442c0.031-1.795-0.485-3.044-0.963-4.33C499.64,120.75,498.963,121.355,497.835,121.51z
		 M198.623,124.396c0-0.802,0-1.606,0-2.407c-0.567-0.552-1.699-0.542-2.885-0.479C196.118,123.05,196.135,124.957,198.623,124.396z
		 M516.599,122.471c0.537,0.994,4.588,1.931,4.326-0.481C520.15,121.355,516.689,120.95,516.599,122.471z M-173.23,123.434
		c0.22-1.503-1.029-1.538-2.406-1.444C-175.67,123.432-174.221,124.433-173.23,123.434z M527.663,122.95
		c0.626,0.678,2.549,1.73,2.886,0C529.644,122.553,528.046,121.177,527.663,122.95z M-169.863,130.167
		c0.569-1.569,1.252-6.878-0.48-7.696C-170.914,124.041-171.595,129.35-169.863,130.167z M-143.405,123.434c0,0.643,0,1.282,0,1.925
		c0.91,0.957,2.272,0.234,3.367,0C-139.302,121.942-141.774,122.338-143.405,123.434z M-134.747,126.319c0.642,0,1.283,0,1.924,0
		c0.708-0.701,0.708-3.147,0-3.849C-135.217,121.931-135.818,124.898-134.747,126.319z M-125.125,126.799
		c0.806-0.797,0.383-2.82,0.48-4.328C-127.801,121.798-127.677,126.848-125.125,126.799z M-163.609,127.764
		c0.761-0.822,2.108-4.913-0.481-4.812C-164.713,123.817-165.177,127.602-163.609,127.764z M-157.355,126.799
		c0.801,0,1.603,0,2.405,0c0.744-0.699,0.423-2.465,0.481-3.849C-157.69,121.854-158.696,124.863-157.355,126.799z
		 M-148.697,125.838c1.002-0.274,0.602-3.112-0.481-2.886C-149.571,123.301-150.468,126.282-148.697,125.838z M489.176,123.434
		c0.731,2.157-0.63,4.408,2.407,4.812c0.889-1.035,0.325-3.527,0.481-5.295C490.879,122.89,489.748,122.878,489.176,123.434z
		 M3.315,137.385c3.938-9.198-6.564-17.917-14.912-12.026c-1.672-1.159-3.69-1.196-3.367,1.924
		c5.895-1.173,11.094-2.709,14.431,1.442c1.153,1.435,1.313,3.788,2.406,5.776c-0.754,1.648-1.492,3.318-2.406,4.808
		c2.368-0.245,2.716,3.424,4.33,2.405C5.007,140.361,3.364,138.948,3.315,137.385z M-182.37,127.764
		c2.225,0.612,2.966,0.127,4.81,1.442c1.125-1.595-0.884-3.384-0.962-5.291C-180.896,124.107-182.178,125.392-182.37,127.764z
		 M47.572,128.723c1.438-0.145,1.702-5.32-0.48-4.808C45.716,125.01,44.94,128.29,47.572,128.723z M97.121,129.688
		c0.922-1.162,0.303-3.865,0.48-5.772c-0.48,0-0.962,0-1.442,0C95.633,125.035,94.713,129.97,97.121,129.688z M227.487,127.764
		c1.175,0.934,4.149,0.589,4.808-0.481c0-0.959,0-1.924,0-2.886C229.941,123.04,226.355,124.08,227.487,127.764z M239.513,127.764
		c1.187,0.062,2.315,0.07,2.883-0.481c0-0.799,0-1.604,0-2.405C240.55,122.602,237.787,125.364,239.513,127.764z M272.223,130.648
		c1.576-1.18-0.002-2.538,0.961-4.329c-1.452-0.472-1.906-1.944-3.366-2.404C267.704,127.066,270.338,128.952,272.223,130.648z
		 M-55.854,127.764c0.68,0.688,2.337-0.105,3.368-0.481c0-0.799,0-1.604,0-2.405C-54.302,123.53-56.559,125.07-55.854,127.764z
		 M82.208,124.396c-1.231,0.693-1.1,2.749-1.444,4.326C84.305,131.731,86.684,123.959,82.208,124.396z M100.969,127.764
		c1.312,0.351,0.968-0.955,1.924-0.963c-0.272-1.171-0.413-2.475-1.924-2.404C100.284,125.037,100.284,127.12,100.969,127.764z
		 M54.307,128.723c0.421-0.478,1.339-4.165-0.481-3.848C52.936,125.337,53.015,128.857,54.307,128.723z M61.522,129.204
		c1.191-1.247-0.467-2.358,0-4.329c-0.48,0-0.962,0-1.443,0C60.304,126.577,59.294,129.51,61.522,129.204z M66.814,129.688
		c2.183,0.509,1.918-4.664,0.482-4.811C66.875,126.187,66.104,128.738,66.814,129.688z M74.992,129.204
		c0.627-0.869,1.212-4.773-0.962-4.329C73.212,125.936,73.804,128.664,74.992,129.204z M89.424,128.723
		c1.533,0.047,2.118-3.613,0.48-3.848C88.632,125.938,89.135,126.943,89.424,128.723z M124.54,128.723
		c1.698-0.679,1.518-2.643,0.481-3.848c-0.641,0-1.283,0-1.924,0C122.135,126.08,122.7,128.836,124.54,128.723z M248.17,127.764
		c1.384-0.057,3.146,0.263,3.849-0.481c0-0.638,0-1.284,0-1.924C250.22,123.821,247.168,126.495,248.17,127.764z M-99.148,129.204
		c1.312,0.351,0.968-0.955,1.924-0.959c-0.26-1.503-1.147-2.382-2.406-2.887C-100.69,126.476-99.534,128.089-99.148,129.204z
		 M-63.069,127.764c1.222-0.059,1.865-0.701,1.924-1.926c-0.616-0.027-0.667-0.615-1.444-0.479
		C-62.991,125.916-63.224,126.648-63.069,127.764z M259.236,125.838c-0.117,1.618,1.787,2.485,2.885,1.444
		C262.779,125.123,260.185,124.945,259.236,125.838z M280.402,127.764c0.763-0.719,0.706-2.742-0.962-2.405
		C278.677,126.076,278.736,128.101,280.402,127.764z M336.685,127.764c1.544,0.191,2.746-2.048,0.961-2.405
		C337.442,126.276,336.273,126.229,336.685,127.764z M-115.986,129.204c2.698,0.941,2.698-4.306,0-3.366
		C-115.588,127.564-117.07,128.167-115.986,129.204z M116.363,130.167c0.972-0.638,1.451-3.216,0.48-4.329c-0.641,0-1.283,0-1.924,0
		C114.082,127.535,115.068,129.272,116.363,130.167z M131.275,128.723c0.205-0.916,1.375-0.869,0.962-2.403
		c-0.616-0.027-0.668-0.617-1.444-0.481C130.132,126.454,129.956,128.713,131.275,128.723z M-108.77,126.799
		c0,0.642,0,1.286,0,1.924c0.622,0.664,2.089,0.478,3.368,0.481c0-0.799,0-1.603,0-2.405
		C-106.043,126.115-108.128,126.115-108.77,126.799z M-92.414,128.723c1.759,1.313,2.974,0.208,4.81,1.444
		c0.25-0.71,0.711-1.211,0.962-1.922c-1.571-0.904-3.188,0.736-3.367-1.926c-0.642,0-1.283,0-1.925,0
		C-92.335,126.877-92.568,127.611-92.414,128.723z M-83.755,130.167c1.816-0.45,2.259-0.027,3.368-0.479
		c-0.004-1.278,0.182-2.748-0.481-3.368C-83.821,125.489-85.072,128.253-83.755,130.167z M-34.207,126.319
		c-5.189,4.136-0.711,9.891,2.405,11.545c0.327,2.883,2.209,4.208,3.368,6.256c2.259-0.74,6.08-2.106,4.33-5.295
		c-1.419-1.179-1.948,1.614-3.368,1.924c-2.54-2.337-0.593-6.017,0.962-8.174c-1.786-1.547-1.798,1.762-4.329,0.959
		C-33.732,132.898-32.114,127.756-34.207,126.319z M138.492,128.245c0.115-0.688,0.793-0.812,0.962-1.446
		C138.266,125.258,136.482,127.92,138.492,128.245z M291.466,127.764c1.257,0.133,2.067-0.176,1.922-1.444
		C292.132,126.184,291.322,126.495,291.466,127.764z M-75.096,129.204c0.876,0.736,3.935,0.736,4.811,0
		c-0.299-1.464-1.069-2.458-2.886-2.405C-72.412,129.001-75.168,127.691-75.096,129.204z M287.619,129.688
		c2.405,0.91,2.678-3.308,0.479-2.887C287.544,127.368,287.552,128.5,287.619,129.688z M22.077,133.053
		c2.834,0.27,1.96-3.169,2.405-5.293c-0.557-0.401-1.291-0.632-2.405-0.479C21.165,129.218,21.88,131.687,22.077,133.053z
		 M296.276,127.764c0.09,1.832,0.683,3.163,2.403,3.367c1.449-0.635,1.756-2.414,2.406-3.849
		C298.848,128.417,297.911,127.505,296.276,127.764z M386.714,131.612c3.049,1.061,2.771-3.013,1.924-4.33c-0.641,0-1.282,0-1.924,0
		C385.99,128.062,385.99,130.833,386.714,131.612z M420.387,127.282c-1.2,0.791-2.175,3.609-0.961,5.293c0.642,0,1.282,0,1.922,0
		C421.904,131.545,422.726,126.93,420.387,127.282z M31.217,132.575c0.757-1.006,0.333-3.196,0.962-4.33
		c-0.616-0.029-0.668-0.618-1.444-0.481C29.819,129.212,29.264,131.847,31.217,132.575z M242.88,129.688
		c0.916,0.902,1.209,0.053,2.403,0C245.82,126.902,242.653,127.682,242.88,129.688z M319.849,129.688
		c1.265,0.144,1.575-0.665,1.44-1.924C319.994,127.795,318.98,128.863,319.849,129.688z M378.536,129.688
		c1.116,0.151,1.846-0.078,2.403-0.481c0.028-0.828-0.371-1.232-0.959-1.442C379.785,128.689,378.115,128.142,378.536,129.688z
		 M394.892,132.094c0.642,0,1.284,0,1.924,0C399.671,126.734,392.468,127.415,394.892,132.094z M413.652,128.245
		c-2.083-1.577-4.607,2.099-2.886,4.33c0.803,0,1.605,0,2.404,0C413.976,131.776,413.554,129.748,413.652,128.245z M465.124,130.648
		c1.354-0.09,2.052-0.837,1.926-2.403c-0.614-0.029-0.665-0.618-1.444-0.481C465.026,128.512,464.071,129.637,465.124,130.648z
		 M-142.925,132.094c1.52-0.086,2.871-0.341,2.886-1.927c-0.063-1.54-1.09-2.115-2.886-1.922
		C-143.632,128.944-143.632,131.391-142.925,132.094z M38.432,132.575c1.784-0.493,1.189-4.808-0.962-4.33
		C36.842,129.112,36.257,133.018,38.432,132.575z M316.48,129.204c0.321,0,0.641,0,0.961,0c0-0.32,0-0.638,0-0.959
		c-0.32,0-0.64,0-0.961,0C316.48,128.566,316.48,128.884,316.48,129.204z M350.154,129.204c1.205-0.396,4.142,0.936,3.848-0.959
		C352.796,128.639,349.86,127.31,350.154,129.204z M362.662,129.688c-0.167-1.756-3.104-0.745-4.328-1.442
		C358.026,130.473,360.962,129.461,362.662,129.688z M403.07,132.575c2.138,0.552,2.138-4.888,0-4.33
		C402.345,129.024,402.345,131.794,403.07,132.575z M454.06,129.688c1.187,1.543,2.972-1.121,0.959-1.442
		C454.906,128.931,454.233,129.054,454.06,129.688z M-158.318,129.204c0,0.643,0,1.284,0,1.925c0.7,0.71,3.148,0.71,3.849,0
		C-153.928,128.734-156.895,128.134-158.318,129.204z M-150.14,132.094c2.217,1.102,2.833-3.465,0.962-3.371
		C-150.158,129.19-150.216,130.57-150.14,132.094z M-135.708,131.129c0.975,0.733,3.838,0.275,3.368-1.925
		C-133.686,128.103-136.167,128.942-135.708,131.129z M-13.04,129.688c0.482-0.002,0.574,0.39,0.962,0.479
		c-0.002-0.481,0.389-0.571,0.481-0.961c-0.483,0.002-0.573-0.39-0.962-0.481C-12.558,129.206-12.948,129.296-13.04,129.688z
		 M111.071,131.129c-0.212-1.389-1.014-2.192-2.406-2.406C106.423,130.056,109.133,132.767,111.071,131.129z M330.912,130.648
		c1.379,0.095,2.627,0.06,2.404-1.444C332.326,128.208,330.876,129.206,330.912,130.648z M366.028,132.575
		c2.126-0.783,1.481-2.779,3.849-2.408c0.32-2.086-2.231-1.293-3.849-1.444C367.152,130.739,366.396,130.211,366.028,132.575z
		 M478.594,128.723c-4.416,4.455-6.182,16.924,1.444,18.762c3.469-3.533,1.927-14.27,0.482-18.762
		C479.878,128.723,479.237,128.723,478.594,128.723z M-125.606,133.053c0.664-0.832,2.018-3.97-0.48-3.849
		C-127.414,130.12-127.169,132.509-125.606,133.053z M513.229,132.575c0.544,0.102,0.751,0.532,0.963,0.959
		c1.797,0.515,1.37-1.194,2.885-0.959c-0.035,0.838,0.11,1.493,0.481,1.922c0.964,0,1.923,0,2.886,0
		c0.936-1.175,0.591-4.153-0.481-4.81c-1.974,0.045-3.942,0.095-5.289-0.481C514.458,130.594,512.97,130.71,513.229,132.575z
		 M528.144,134.497c3.046,1.061,2.768-3.015,1.922-4.33c-0.642,0-1.283,0-1.922,0C527.419,130.948,527.419,133.716,528.144,134.497z
		 M-181.89,134.977c2.595,0.609,2.945-2.838,1.924-4.328c-0.481,0-0.962,0-1.443,0C-181.871,131.796-182.996,133.729-181.89,134.977
		z M-56.335,134.016c1.279-0.004,2.748,0.184,3.368-0.479c0-0.803,0-1.604,0-2.405C-55.019,129.346-58.395,131.69-56.335,134.016z
		 M-19.775,133.536c1.702,0.292,2.786-2.492,0.963-2.883C-19.24,131.506-20.156,131.872-19.775,133.536z M46.61,131.612
		c0.481,0,0.962,0,1.443,0c0.062-0.865-0.478-1.128-1.443-0.959C46.61,130.968,46.61,131.291,46.61,131.612z M227.487,132.575
		c1.025,0.554,5.642,1.376,5.289-0.963C232.244,129.956,227.475,130.669,227.487,132.575z M239.032,131.129
		c-0.458,1.99,3.57,2.949,3.366,0.481C242.39,130.213,239.681,130.473,239.032,131.129z M249.132,131.129c0,0.481,0,0.961,0,1.446
		C252.62,135.059,252.62,128.643,249.132,131.129z M338.127,133.053c1.223-0.059,1.867-0.701,1.926-1.924
		C338.921,129.827,336.824,131.925,338.127,133.053z M430.007,131.129c-0.556-0.403-1.291-0.633-2.403-0.48
		C427.14,132.418,429.964,132.56,430.007,131.129z M536.804,134.497c2.606,1.025,2.705-4.318,0.478-3.849
		C536.538,131.35,536.859,133.113,536.804,134.497z M439.149,134.497c0.02-1.462,0.282-3.167-1.444-2.885
		C437.082,132.293,437.951,134.193,439.149,134.497z M447.327,136.9c0.744-0.982,0.744-4.306,0-5.29
		C442.715,130.531,443.083,137.938,447.327,136.9z M554.119,134.497c0.208-0.916,1.374-0.871,0.959-2.403
		c-0.614-0.029-0.665-0.619-1.44-0.481C552.976,132.227,552.799,134.487,554.119,134.497z M-172.75,134.016
		c0.152-0.647,0.686-0.92,0.481-1.922C-173.91,131.729-174.144,133.93-172.75,134.016z M277.514,134.977
		c0.542,0.104,0.748,0.534,0.961,0.961c1.828-0.254,2.296-1.875,2.888-3.366C279.399,131.075,277.789,133.264,277.514,134.977z
		 M313.112,134.497c1.174-0.272,2.474-0.411,2.407-1.922C314.408,131.521,312.833,132.714,313.112,134.497z M379.499,134.497
		c0.54,0.102,0.748,0.534,0.962,0.961C384.929,134.517,380.071,129.658,379.499,134.497z M544.978,133.536
		c1.405,0.707,1.405-2.149,0-1.442C544.978,132.575,544.978,133.053,544.978,133.536z M219.789,134.497
		c0.15-0.649,0.683-0.92,0.479-1.922C218.627,132.211,218.393,134.411,219.789,134.497z M267.414,133.536
		c0.454,0.499,2.477,0.44,2.404-0.961C268.625,132.501,267.484,132.483,267.414,133.536z M470.417,134.977
		c1.123-0.16,2.071-0.493,2.403-1.442C471.892,132.599,469.876,133.033,470.417,134.977z M492.065,133.053c-0.802,0-1.604,0-2.407,0
		C489.188,134.99,492.531,134.99,492.065,133.053z M104.817,136.9c1.57,0.126,2.315-0.567,2.406-1.924
		c-0.439-0.842-0.895-1.67-2.406-1.442C104.132,134.176,104.132,136.259,104.817,136.9z M118.768,134.016c0,0.321,0,0.642,0,0.961
		c0.292,0.029,0.57,0.072,0.481,0.481c0.321,0,0.641,0,0.962,0c0.028-0.291,0.071-0.569,0.48-0.481c0-0.319,0-0.64,0-0.961
		c-0.293-0.027-0.569-0.07-0.48-0.479c-0.321,0-0.642,0-0.962,0C119.221,133.828,119.177,134.105,118.768,134.016z M126.465,135.46
		c0.151-0.649,0.685-0.918,0.48-1.924C125.306,133.174,125.069,135.374,126.465,135.46z M452.62,135.46
		c0.438,0.844,0.889,1.672,2.399,1.442c0.689-0.64,0.689-2.723,0-3.366C453.454,133.409,452.709,134.105,452.62,135.46z
		 M-44.309,135.941c0.813,0.758,2.775-0.051,2.406-1.926C-43.471,133.891-44.219,134.587-44.309,135.941z M26.406,141.23
		c-0.152-3.938-4.769-8.737-9.621-6.733c1.798,2.465,4.621,2.627,5.772,5.774c0.748,2.04-1.228,4.835,1.444,5.771
		C24.328,144.707,26.482,143.196,26.406,141.23z M327.545,134.497c-0.56-0.403-1.292-0.634-2.407-0.481
		C324.292,136.169,327.684,135.746,327.545,134.497z M330.431,135.941c1.256,0.134,2.068-0.176,1.924-1.444
		C331.529,133.63,330.462,134.644,330.431,135.941z M461.275,136.9c1.492,0.05,2.299-0.587,3.371-0.959
		c0.353-1.313-0.959-0.969-0.963-1.926C462.132,134.229,460.888,134.752,461.275,136.9z M500.244,135.941
		c1.057,1.787,6.021,3.151,6.729,0C506.229,134.172,500.279,132.763,500.244,135.941z M256.349,137.385
		c0.156,3.231,4.514,3.249,6.254,0.961C261.417,133.683,256.163,133.56,256.349,137.385z M386.714,135.46
		c0.271,1.173,0.412,2.475,1.924,2.404c1.035-0.407,1.705-1.183,1.446-2.886C388.519,134.701,387.841,135.306,386.714,135.46z
		 M-113.099,142.675c5.304,0.095,7.765,0.153,12.988,0c0.647-1.358-2.549-1.205-0.962-1.926c2.72-1.113,2.67,1.216,4.329,0.481
		c-0.338-1.904-2.832-1.656-1.924-4.808c-5.584-0.606-10.086,0.666-14.431-0.963C-115.275,137.296-112.358,139.404-113.099,142.675z
		 M227.966,136.423c0.479,0,0.961,0,1.442,0c0.062-0.867-0.478-1.127-1.442-0.963C227.966,135.781,227.966,136.103,227.966,136.423z
		 M241.917,135.941C240.296,134.478,240.457,137.719,241.917,135.941L241.917,135.941z M338.609,136.9
		c0.854,1.21,2.885-1.205,0.963-1.442C339.455,136.146,338.779,136.271,338.609,136.9z M-171.306,142.675
		c2.902-0.305,2.485-3.928,3.367-6.252C-171.927,134.497-172.216,140.499-171.306,142.675z M-166.015,142.193
		c2.065,0.14,3.179-0.669,4.33-1.444c-0.13-1.633,0.373-3.899-0.48-4.808C-165.618,135.855-164.04,140.802-166.015,142.193z
		 M-140.519,140.749c1.492,0.349,3.942-2.016,4.811-3.849c-0.375-0.105-0.559-0.398-0.48-0.959
		C-139.063,136.114-140.603,137.621-140.519,140.749z M-56.816,136.423c-0.381,1.664,0.535,2.03,0.962,2.884
		c1.55-0.214,2.794-0.734,2.406-2.884C-54.09,135.734-56.174,135.734-56.816,136.423z M-49.601,137.385c0.481,0,0.962,0,1.444,0
		c0-0.482,0-0.962,0-1.443c-0.321,0-0.642,0-0.962,0C-49.146,136.555-49.736,136.607-49.601,137.385z M47.572,139.79
		c0.708-0.701,0.708-3.149,0-3.849c-0.48,0-0.962,0-1.442,0C45.125,137.187,45.592,140.043,47.572,139.79z M291.466,137.385
		c-4.725-1.067-10.656-2.132-10.104,2.405c0.524,4.291,12.978,1.969,17.801,2.403c0.755-0.041,0.375-1.225,1.442-0.961
		c3.705,3.586,7.34-1.021,12.026,0.481c0.396-1.36-0.678-1.247-0.48-2.405c1.363-0.082,3.301,0.415,3.367-0.959
		c-6.447-2.118-13.925-0.701-21.645-0.963c-0.957,0.328,0.297,2.865-1.447,2.405C291.427,139.665,292.296,137.676,291.466,137.385z
		 M-180.446,142.675c1.414-0.391,1.838-6.557-0.481-6.252C-181.583,137.57-183.221,142.522-180.446,142.675z M-178.522,136.9
		c-0.337,1.666,1.686,1.727,2.405,0.964C-175.78,136.2-177.805,136.138-178.522,136.9z M-134.747,140.749
		c1.159,0.2,1.046-0.877,2.406-0.478c-0.231-1.515,0.685-1.881,0.962-2.887C-133.444,134.738-136.512,138.134-134.747,140.749z
		 M-95.3,140.749c1.006,0.278,1.373,1.194,2.886,0.963c1.449-0.973,0.491-3.578,0-5.293
		C-94.967,136.274-95.146,138.498-95.3,140.749z M-88.084,138.346c0.92,1.006,1.712,2.136,3.367,2.403
		c0.428-1.014,1.465-1.421,1.443-2.885C-84.086,136.376-88.07,135.433-88.084,138.346z M54.307,139.79
		c0.705-0.764,0.994-3.819-0.96-3.367C52.64,137.183,52.353,140.24,54.307,139.79z M61.042,139.79
		c0.706-0.764,0.992-3.819-0.962-3.367C59.274,137.284,59.954,139.375,61.042,139.79z M68.258,140.749
		c0.667-1.351,1.271-2.766,0.48-4.326c-0.48,0-0.962,0-1.442,0C66.728,138.13,65.615,140.737,68.258,140.749z M81.727,140.749
		c3.041,0.797,2.389-2.101,2.406-4.326C80.816,135.229,80.696,139.124,81.727,140.749z M435.3,139.309
		c1.457-0.31,2.775-0.752,2.886-2.406C436.738,135.697,434.784,137.063,435.3,139.309z M-184.294,137.864c0.32,0,0.641,0,0.962,0
		c0-0.319,0-0.641,0-0.962c-0.321,0-0.642,0-0.962,0C-184.294,137.222-184.294,137.545-184.294,137.864z M-159.28,142.193
		c3.305,0.041,3.416-4.329,0.962-5.293C-159.046,138.26-159.48,139.909-159.28,142.193z M-39.017,138.825
		c1.033,0.895,3.271,0.072,2.886-1.925C-37.926,136.711-38.953,137.288-39.017,138.825z M75.473,140.749
		c0.666-0.807,1.111-4.307-0.962-3.849C74.662,138.357,73.976,140.646,75.473,140.749z M89.424,138.825c0.32,0,0.641,0,0.959,0
		c0-0.641,0-1.282,0-1.925c-0.32,0-0.641,0-0.959,0C89.424,137.545,89.424,138.185,89.424,138.825z M97.121,140.749
		c1.81-0.454,1.048-4.282-0.962-3.849C95.493,137.711,95.048,141.213,97.121,140.749z M269.818,145.562
		c4.138,0.636,6.316-8.145,0-8.66C266.764,138.735,266.314,145.021,269.818,145.562z M358.813,138.346c0.481,0,0.963,0,1.444,0
		c0.086-1.048-0.392-1.531-1.444-1.445C358.813,137.385,358.813,137.864,358.813,138.346z M367.472,139.79
		c0.333-1.269,2.188-1.018,2.404-2.405c-0.557-0.403-1.29-0.633-2.404-0.482C367.594,138.33,365.57,139.277,367.472,139.79z
		 M375.651,139.309c1.54,0.191,2.744-2.048,0.959-2.406C376.402,138.021,374.488,138.188,375.651,139.309z M467.531,140.271
		c1.574-0.193,3.108-0.419,3.367-1.926C470.6,135.386,466.314,137.331,467.531,140.271z M559.412,137.864c0.321,0,0.643,0,0.963,0
		c0-0.319,0-0.641,0-0.962c-0.32,0-0.642,0-0.963,0C559.412,137.222,559.412,137.545,559.412,137.864z M341.012,138.825
		c1.562-0.278,2.239,0.329,3.371,0.481C345.146,136.572,341.075,137.13,341.012,138.825z M-127.049,138.825c0.32,0,0.641,0,0.962,0
		c0-0.319,0-0.641,0-0.961c-0.321,0-0.642,0-0.962,0C-127.049,138.185-127.049,138.506-127.049,138.825z M417.5,140.749
		c1.899,0.294,2.132-1.072,2.408-2.403C418.419,136.818,415.973,139.262,417.5,140.749z M-152.545,142.193
		c1.958,0.035,2.071-1.777,1.924-3.848c-0.48,0-0.962,0-1.444,0C-152.411,139.5-153.427,141.254-152.545,142.193z M-143.405,144.12
		c2.381-2.192-0.474-4.97-2.406-5.774C-147.877,140.225-146.396,144.374-143.405,144.12z M216.901,141.714c0.964,0,1.927,0,2.888,0
		c-0.637-1.45-1.202-2.969-2.888-3.368C216.901,139.469,216.901,140.593,216.901,141.714z M250.577,141.714
		c1.143-0.301,2.239-0.646,2.403-1.924c-0.131-0.988-1.284-0.961-1.922-1.444C250.332,139.026,249.539,140.683,250.577,141.714z
		 M386.232,138.825c-0.338,1.666,1.688,1.727,2.404,0.963C388.974,138.124,386.953,138.063,386.232,138.825z M422.792,138.825
		c-0.02,0.663,0.228,1.057,0.481,1.446c1.269,0.143,1.578-0.669,1.442-1.926C423.879,138.309,423.219,138.453,422.792,138.825z
		 M447.808,141.23c1.39-0.211,2.192-1.014,2.404-2.405C448.967,137.545,446.524,139.987,447.808,141.23z M527.663,139.79
		c0.947,0.893,3.543,0.713,2.886-1.444C529.08,138.322,528.097,138.784,527.663,139.79z M-13.04,139.309
		c-0.022,0.663,0.226,1.057,0.48,1.442c1.268,0.146,1.58-0.663,1.444-1.924C-11.954,138.792-12.613,138.933-13.04,139.309z
		 M112.995,142.675c2.437,0.764,3.343-3.241,1.444-3.85C113.167,139.657,111.867,140.741,112.995,142.675z M335.242,140.749
		c1.222-0.059,1.865-0.698,1.922-1.924c-0.64,0-1.279,0-1.922,0C335.242,139.469,335.242,140.111,335.242,140.749z M378.054,140.271
		c0.854,1.208,2.885-1.21,0.959-1.446C378.9,139.512,378.226,139.64,378.054,140.271z M486.773,140.271
		c0.626,1.358,3.354,2.427,4.807,1.442C492.562,138.134,487.473,138.159,486.773,140.271z M-120.314,142.193
		c1.713,0.112,2.515-0.692,2.404-2.403c-0.649-0.15-0.918-0.686-1.924-0.481C-120.389,139.878-120.379,141.008-120.314,142.193z
		 M122.616,144.602c6.19-2.198,16.766-0.066,24.534-0.481c2.287-0.126,6.738,0.704,5.772-2.406
		c-7.49,0.592-18.495,0.061-27.901,0.961c-1.203-0.402,0.551-3.76-1.442-3.368C119.688,138.404,121.16,143.977,122.616,144.602z
		 M223.638,141.714c0.756-0.714,0.537-2.149-0.963-1.924C222.541,140.886,222.789,141.599,223.638,141.714z M358.332,142.193
		c1.582,1.773,4.568-1.895,2.403-2.403C360.696,141.352,357.87,140.129,358.332,142.193z M-51.524,142.675
		c1.568,1.829,4.36-1.681,1.924-2.403C-50.159,141.152-52.154,140.604-51.524,142.675z M-43.828,142.193
		c0.493,1.364,2.799,2.625,4.33,1.445C-38.613,140.35-43.625,138.886-43.828,142.193z M16.303,142.675
		c0.765-0.72,0.704-2.744-0.959-2.403C14.339,141.229,15.326,142.323,16.303,142.675z M30.255,141.714c0.32,0,0.641,0,0.962,0
		c0.025-0.616,0.617-0.665,0.48-1.442c-0.48,0-0.962,0-1.442,0C30.255,140.749,30.255,141.23,30.255,141.714z M395.374,145.079
		c2.783,0.659,2.881-3.257,1.922-4.808c-0.479,0-0.959,0-1.44,0C395.432,141.577,394.663,144.132,395.374,145.079z M401.625,141.23
		c0.321,0,0.642,0,0.963,0c0-0.321,0-0.638,0-0.959c-0.321,0-0.642,0-0.963,0C401.625,140.593,401.625,140.909,401.625,141.23z
		 M540.17,142.193c0.904,0.912,2.498,0.059,2.882-0.961C542.112,139.958,540.213,140.156,540.17,142.193z M547.867,140.749
		c0,0.481,0,0.963,0,1.444c1.409-0.035,2.713-0.172,2.404-1.922C549.155,140.115,548.423,140.346,547.867,140.749z
		 M-129.455,143.639c0.956,0.006,0.611,1.312,1.924,0.963c1.666-0.358,1.636-2.404,0.962-3.853
		C-128.868,140.379-129.411,141.755-129.455,143.639z M366.991,141.23c0.047,1.366,3.309,1.97,3.369,0.481
		C369.403,141.262,368.068,140.146,366.991,141.23z M515.155,141.714c0.908-0.213,2.897,0.652,2.403-0.963c-0.798,0-1.601,0-2.403,0
		C515.155,141.07,515.155,141.394,515.155,141.714z M-63.551,142.193c-0.125,1.57,0.571,2.316,1.924,2.408
		c1.006-0.44,1.467-1.421,1.444-2.888C-61.262,140.63-62.595,141.743-63.551,142.193z M-35.168,142.193c0.321,0,0.641,0,0.962,0
		c0-0.32,0-0.64,0-0.961c-0.321,0-0.641,0-0.962,0C-35.168,141.554-35.168,141.873-35.168,142.193z M-17.37,144.602
		c1.062-0.444,2.157-2.12,0.962-3.371C-19.095,140.718-19.476,144.198-17.37,144.602z M317.441,142.193
		c0.066,1.86,1.88,1.97,3.849,1.927c0.21-0.916,1.039-1.212,0.963-2.406C320.707,140.406,319.401,142.421,317.441,142.193z
		 M427.123,143.154c1.154,0.448,1.272,1.935,3.371,1.447c0.273-1.007,1.189-1.376,0.959-2.888
		C430.09,140.702,427.612,141.794,427.123,143.154z M545.459,142.675c1.405,0.709,1.405-2.148,0-1.444
		C545.459,141.714,545.459,142.193,545.459,142.675z M412.21,142.675c0.271,2.181,2.753-2.756,0.479-0.481
		C412.461,142.423,412.136,142.104,412.21,142.675z M462.239,144.12c1.178,1.037,3.554,0.357,3.366-1.445
		c-0.685-0.115-0.811-0.792-1.44-0.961C463.679,142.671,462.035,142.474,462.239,144.12z M524.778,142.193c0,0.481,0,0.961,0,1.445
		c1.374,0.094,2.622,0.059,2.399-1.445C526.546,141.575,525.408,141.575,524.778,142.193z M-5.824,145.562
		c2.882,0.616,2.104-3.229,0-2.884C-5.434,144.337-6.723,144.707-5.824,145.562z M-153.507,146.042
		c1.353-0.09,2.048-0.838,1.924-2.403c-0.616-0.027-0.667-0.619-1.444-0.482C-153.607,143.904-154.563,145.032-153.507,146.042z
		 M83.17,147.486c0.954,0.121,6.874-2.971,4.81-4.33C86.93,145.153,82.924,144.19,83.17,147.486z M102.413,143.639
		c-0.135,1.096,0.115,1.809,0.962,1.924c0.086-1.356,2.286-0.601,1.924-2.406C104.112,143.094,102.981,143.082,102.413,143.639z
		 M107.223,146.523c0.91,0.109,1.06-0.542,1.924-0.481c0.02-1.46,0.281-3.167-1.443-2.886
		C106.976,143.834,106.185,145.492,107.223,146.523z M343.902,145.079c0.916,0.207,0.869,1.374,2.403,0.963
		c0.397-0.906,1.777-2.502,0-2.888C345.687,143.984,344.015,143.752,343.902,145.079z M499.281,145.562
		c1.773,1.179,4.968,0.354,5.292-1.442C503.07,143.113,498.83,142.186,499.281,145.562z M-71.729,146.042
		c1.226-0.057,1.866-0.701,1.924-1.922c-0.615-0.029-0.666-0.619-1.443-0.481C-71.653,144.194-71.88,144.926-71.729,146.042z
		 M7.645,147.003c0.254-1.047,1.165-3.11-0.48-3.366C6.26,144.21,5.336,147.232,7.645,147.003z M57.194,144.12
		c0,0.32,0,0.638,0,0.959c0.292,0.027,0.568,0.072,0.48,0.481c0.321,0,0.642,0,0.962,0c0.028-0.294,0.072-0.569,0.481-0.481
		c0-0.321,0-0.639,0-0.959c-0.292-0.029-0.569-0.075-0.481-0.481c-0.32,0-0.641,0-0.962,0
		C57.646,143.932,57.603,144.206,57.194,144.12z M162.062,144.12c-0.568,2.051,3.802,1.93,3.848,0.481
		C165.266,143.74,163.126,143.109,162.062,144.12z M509.862,144.12c0.016,1.971,2.623,3.159,4.33,1.922c0-0.64,0-1.284,0-1.922
		C513.186,143.169,510.998,143.75,509.862,144.12z M519.966,145.562c0.908,0.107,1.061-0.542,1.922-0.481
		c0.22-1.504-1.025-1.537-2.403-1.442C519.45,144.476,519.59,145.134,519.966,145.562z M531.511,144.12
		c-0.023,0.661,0.227,1.053,0.481,1.442c1.226-0.055,2.474-0.09,2.403-1.442C534.193,143.049,531.843,143.74,531.511,144.12z
		 M45.167,146.523c0.25-0.711,0.711-1.212,0.962-1.922c-0.616-0.029-0.667-0.619-1.443-0.481
		C44.03,144.732,43.942,146.477,45.167,146.523z M70.663,147.486c0.763-0.716,0.704-2.742-0.962-2.405
		C68.937,145.799,68.997,147.823,70.663,147.486z M228.927,146.042c0.485,0,0.576,0.39,0.963,0.481
		c-0.002-0.481,0.39-0.571,0.48-0.961c-0.482,0.002-0.572-0.39-0.962-0.481C229.413,145.564,229.021,145.654,228.927,146.042z
		 M293.388,146.523c0.321,0,0.643,0,0.964,0c0-0.321,0-0.642,0-0.961c-0.321,0-0.643,0-0.964,0
		C293.388,145.882,293.388,146.202,293.388,146.523z M117.325,149.41c0-0.481,0-0.961,0-1.442c0.693,0.538,1.172,0.519,1.442-0.481
		c-0.852-0.431-0.613-1.953-2.405-1.444C115.565,146.897,115.665,149.569,117.325,149.41z M320.329,147.968
		c0.025-0.828-0.374-1.232-0.961-1.444C318.678,147.229,318.659,148.387,320.329,147.968z M314.075,147.003
		c-0.427-0.37-1.374,0.296-1.444,0.481C311.953,149.299,315.026,147.829,314.075,147.003z M308.302,148.927
		c0.025-0.825-0.374-1.232-0.961-1.442C306.652,148.188,306.632,149.348,308.302,148.927z M329.467,149.891
		c0.627-0.639,0.635-1.791-0.481-1.923C328.364,148.606,328.352,149.755,329.467,149.891z"/>
</g>
</svg>
