
<svg version="1.1" id="Layer_1" xmlns="http://www.w3.org/2000/svg" xmlns:xlink="http://www.w3.org/1999/xlink" x="0px" y="0px"
	 viewBox="0 0 1920 1080" style="enable-background:new 0 0 1920 1080;" xml:space="preserve">
<style type="text/css">
	.st0{fill:none;stroke:#000000;stroke-width:2;stroke-linecap:round;stroke-linejoin:round;stroke-miterlimit:10;}
</style>
<path class="st0" d="M1077.53,298.56c-6.47,1.65-10.35,6.54-13.72,11.7c-1.24,1.89-2.96,3.11-4.36,4.69
	c-5.35,6.03-8.35,13.52-13,19.94c-5.28,7.29-10.78,14.3-19.43,18.05c-2.9,1.26-4.53,4.28-6.31,6.74
	c-5.62,7.72-10.72,15.89-17.43,22.65c-3.81,3.84-7.35,8.8-13.72,9.13c-2.25,0.12-4.49-1.06-6.74-0.01"/>
<path class="st0" d="M978.71,709.43c-22.46-0.12-44.92-0.25-67.38-0.37"/>
<path class="st0" d="M994.8,391.07c4.27,4.57,3.36,9.56,1.1,14.6c-1.08,2.41-1.39,4.99-1.75,7.51c-0.28,1.99-0.68,3.14-2.65,4.23
	c-2.55,1.41-2.93,4.86-4.91,7.01c-2.81,3.06-5.19,6.49-8.24,9.36c-2.79,2.63-4.59,5.99-6.4,9.33c-1.93,3.54-4.49,6.69-5.28,10.86
	c-1.15,6.08-1.88,12.2-2.11,18.37c-0.09,2.45-0.31,4.33-3.07,4.87"/>
<path class="st0" d="M809.14,506.62c-2.42-3.51-1.66-7.59-1.77-11.43c-0.06-2.36,1.63-4.87,1.25-7.09
	c-1.13-6.64,1.5-12.74,2.07-19.12c0.73-8.14,1.9-16.24,2.94-24.35c0.58-4.49,0.36-9.06,1.49-13.48c1.22-4.79,1.4-9.72,1.86-14.61
	c0.39-4.12,1.3-8.15,1.28-12.36c-0.01-2.18,1.81-4.26,1.75-6.74c-0.18-7.21,1.91-14.19,2.22-21.35c0.11-2.39,1.88-4.23,1.95-6.74
	c0.13-4.88,0.65-9.74,1.06-14.61c0.18-2.13,0.74-4.25,0.69-6.37c-0.19-9.41,2.42-18.46,3.48-27.71c0.4-3.55,4.96-2.2,8.54-0.38
	l-10.86-9.36c-0.79-0.92-0.17-2.01-0.37-3l5.77-52.76l-5.77-7.54c79.36,0,158.71,0,238.07,0"/>
<path class="st0" d="M967.85,599.32c-2.96,5.39-5.41,11.02-8.88,16.18c-3.47,5.17-8.54,7.14-13.97,4.45
	c-3.29-1.63-6.53-3.39-10.47-3.08c-2.41,0.19-3.93,1.06-4.49,3.43"/>
<path class="st0" d="M793.42,686.96c1.58,2.82-0.49,5.45-0.45,8.24c0.18,12.23,0.08,24.47,0.08,36.7"/>
<path class="st0" d="M1103.36,455.12c-1.62,0.44-1.82,1.9-1.42,2.97c0.85,2.28,0,4.53,0.12,6.78c0.11,2.02,0,4.34-2.35,6.11
	c-2.82,2.12-3,6.06-4.16,9.25c-2.14,5.91-3.25,12.16-6.64,17.68c-0.95,1.55-1.09,4.45,0.97,6.27c2.08,1.85,3.64,4.1,6.68,5.05
	c2.45,0.76,3.93,3.35,4.59,6.18c1.28,5.53,1.75,10.64-0.95,16.22c-2.26,4.67-2.51,10.26-1.93,15.63c1.34,0,2.46,0,3.58,0"/>
<path class="st0" d="M886.62,545.76c-3.43-1.19-6.52-2.62-8.7-5.94c-2.35-3.59-3.97-3.58-8.17-2.18c-2.17,0.72-4.52,0.9-6.08,2.61
	c-2.15-0.31-3.15-2.04-3.85-3.2c-1.04-1.73-2.09-2.05-3.89-2.25c-1.83-0.21-3.52-0.94-3.46-3.65c0.08-3.7-2.35-6.91-2.84-10.49
	c-0.72-5.27-3.75-9.78-4.54-14.98c-0.43-2.87,0.26-5.62,1.47-8.24"/>
<path class="st0" d="M880.63,689.96c0-1.63,0-3.26,0-5.48c7.22,6.21,5.36,14.31,6.78,21.44c-4.21,1.3-8.12,1.27-12.02,1.26"/>
<path class="st0" d="M1037.1,577.22c-2.25,1.62-4.59,3.13-6.71,4.9c-2.22,1.85-4.82,2.37-7.5,3.04c-2.7,0.67-5.36,1.72-7.86,2.96
	c-7.05,3.5-12.67,9.17-19.47,13.09c-5.16,2.97-7.41,2.7-10.87-1.71c-3.65-4.66-7.33-5.86-11.6-3.74c-1.52,0.76-3,1.61-4.5,2.43"/>
<path class="st0" d="M837.96,320.29c2.27,2.49,6.06,2.51,8.27,5.22c2.6,3.18,5.99,5.46,9.72,7.11c3.68,1.63,7.47,3.03,11.22,4.52"/>
<path class="st0" d="M864.16,695.95c-1.17,1.64-2.3,3.03-4.44,3.88c-3.4,1.35-4.36,5.99-2.66,10.34c1.43,3.66,2.86,7.34,3.3,11.25
	c0.46,4.05-0.41,7.87-2.93,11.24c-1.7,2.28-1.81,8.62,0.02,10.82c3.83,4.6,5.02,10.13,5.9,15.77c0.21,1.35,0.49,3.26,1.54,3.23
	c4.47-0.14,7.58,3.22,11.61,4.07"/>
<path class="st0" d="M872.77,706.43c0.38,3.85-1.41,7.3-2.37,10.83c-2.01,7.41-0.6,12.35,5.71,17.3c1.58,1.24,3.16,2.76,4.06,4.5
	c1.44,2.8,4.71,2.88,6.52,5.15c2.72,3.41,2.32,7.04,0.96,10.5c-1.42,3.6-2.02,7.07-1.45,10.91c0.91,6.02,2.22,4.75-3.87,7.56
	c-1.54-1.14-2.27-2.93-3.2-4.57"/>
<path class="st0" d="M950.26,333.39c-3.26,0.57-3.68-2.4-4.79-4.17c-1.4-2.24-2.88-3.62-5.69-3.36c-2.23,0.2-4.49,0-6.73,0.05
	c-3.04,0.07-6.26-0.71-8.68,2.18c-0.36,0.43-1.68,0.06-2.55,0.06"/>
<path class="st0" d="M1081.27,391.07c-1.02,6.8-5.81,10.77-10.84,14.63c-4.08,3.13-8.07,6.39-11.97,9.74
	c-2.38,2.04-4.57,4.17-4.66,7.83c-0.03,1.52-1.54,3.05-2.49,4.49c-3.25,4.9-5.18,10.16-5.72,16.1c-0.31,3.49-1.77,6.87-1.38,10.5"/>
<path class="st0" d="M969.72,479.65c-2.41,0.36-0.85,2.4-0.64,2.75c2.9,4.91,3.42,10.63,5.31,15.86c1.32,3.64,3.61,6.59,5.24,9.95
	c2.7,5.57,6.59,10.55,9.9,15.83c0.79,1.27,1.42,2.69,1.87,4.11c1.69,5.3,5.01,7.96,10.5,8.65c2.51,0.32,5,0.9,7.15,2.53
	c1.31,0.99,2.96,1.54,4.46,2.29"/>
<path class="st0" d="M900.47,520.66c-6.89,6.79-10.88,15.22-13.39,24.37c-0.71,2.59,1.71,4.58,2.93,6.7
	c2.32,4.02,1.98,9.59-0.75,12.4c-1.59,1.63-3.33,2.66-5.64,2.6c-3.81-0.09-6.85,2.35-10.44,3.18c-2.76,0.63-4.31,7.33-2.98,11.03
	c0.72,2.01,0.98,4.06,0.57,5.99c-0.23,1.07,0.17,1.55,0.49,2.28c2.89,6.43,2.92,12.54-1.03,18.78c-3.12,4.93-3.77,10.68-2.65,16.41
	c0.84,4.3-0.74,7.19-3.71,10.21c-4.67,4.75-8.36,10-9.71,17.09c-1.14,6.01-1.36,12.74-6.11,17.65c-2.04,2.1-3.13,4.83-4.88,7.1
	c-1.23,1.59-1.24,3.42,0.08,4.44c4.16,3.21,8.7,5.57,14.15,6.18c3.5,0.39,7.38-1,10.49,1.76"/>
<path class="st0" d="M808.39,507.18c-4.49,4.74-5.17,10.94-5.46,16.86c-0.43,8.84-1.92,17.49-2.99,26.23
	c-0.6,4.94-0.78,9.98-1.27,14.96c-0.05,0.49,0.21,1.23-0.04,1.46c-4.4,4.21-1.3,9.55-2.05,14.29c-1.08,6.85-1.93,13.75-2.88,20.61
	c-1,7.2-0.98,14.62,0.54,22.12c1.25,6.18,6.77,7.8,9.45,12.2c0.76,1.25,1.65,2.39,2.11,3.83c0.48,1.5,0.34,3.24,2.2,4.18
	c1.95,0.98-0.27,3.59,1.52,4.82"/>
<path class="st0" d="M980.95,331.9c0.38-1.75-0.84-1.45-1.87-1.51c-2.41-0.13-4.92,0.58-7.14-1.07c-0.4-0.3-1.36-0.28-1.82-0.01
	c-4.27,2.6-9.46,2.02-13.87,4.08"/>
<path class="st0" d="M960.36,478.72c-2.77,2.43-4.24,5.57-5.75,8.93c-3.47,7.71-5.76,15.83-8.93,23.62
	c-0.93,2.28-0.54,4.55-0.92,6.8c-0.38,2.18-0.54,4.36-1.61,6.35"/>
<path class="st0" d="M875.39,370.47c-1.5,3.6-1.18,7.54-2.1,11.27c-0.43,1.73-0.96,3.19-2.05,4.44c-2.55,2.93-3.33,6.7-4.3,10.18
	c-0.91,3.28-1.2,7.14-0.36,10.39c1.29,5.02,0.36,10.08,1.32,15.03"/>
<path class="st0" d="M889.99,663.36c2.48,9.22-2.15,15.75-8.24,21.72"/>
<path class="st0" d="M868.28,422.53c1.4,1.2,1.46,2.79,1.53,4.49c0.2,4.88-1.17,9.72-0.39,14.61c0.25,1.56-1.4,1.65-1.88,2.62"/>
<path class="st0" d="M1014.64,335.27c-2.36,1.85-5.15,1.68-7.86,1.47c-4.34-0.34-7.25,1.15-8.28,5.64
	c-0.17,0.76-1.06,0.87-1.83,0.76"/>
<path class="st0" d="M812.32,664.86c0.76,4.15-0.49,8.06-1.51,11.98c-1.89,7.22,1.91,9.62,8.06,9.29c5.44-0.29,10.86-0.9,15.8-3.93
	c2.29-1.4,5.37-1.26,8.17-1.24"/>
<path class="st0" d="M927.8,448c-2.75,1.25-5.47,2.55-8.24,3.73c-1.73,0.73-2.5,2.28-2.14,3.74c0.69,2.78-0.88,4.71-2.01,6.74
	c-1.82,3.25-4.83,5.93-4.46,10.14c0.03,0.36-0.11,0.91-0.37,1.1c-3.83,2.81-4.07,7.15-4.85,11.26"/>
<path class="st0" d="M1001.91,710.18c-7.48-0.23-14.98,0.47-22.46-0.37"/>
<path class="st0" d="M928.55,622.54c-3.22,9.34-7.32,18.1-17.62,21.46c-5.12,1.67-8.69,5.48-13.03,8.2
	c-0.87,0.54-1.49,1.23-2.64,1.51c-2.92,0.72-5.22,2.38-6.01,5.54"/>
<path class="st0" d="M1098.49,547.63c-1.33,4.37-4.82,6.81-8.2,9.41c-0.72,0.56-1.31,0.29-1.91,0.29c-2.24-0.01-4.44,0.99-5.11,2.71
	c-1.97,5.03-6.35,7.95-9.49,11.94"/>
<path class="st0" d="M867.16,445.01c-0.65,4.72-1.55,9.11-3.74,13.67c-2.32,4.84-7.18,7.9-8.25,13.3c-0.22,1.13-0.95,2.38-0.66,3.35
	c1.07,3.67-0.59,6.94-2.13,9.66c-2.15,3.79-3.76,7.75-5.43,11.71"/>
<path class="st0" d="M912.08,545.76c1.44,1.49,2.14,4.07,3.2,5c3.61,3.15,5.85,9.32,12.52,7.35"/>
<path class="st0" d="M900.1,319.54c-1.87,0.18-3.76-0.34-5.62,0.36c-3.95,1.49-4.13,4.81-4.11,8.25"/>
<path class="st0" d="M805.4,709.06c0.07,1.25,0.08,2.49,0.32,3.76c0.85,4.48,0.29,8.58-3.26,12.03c-1.63,1.58-2.58,3.79-0.43,5.93"
	/>
<path class="st0" d="M1078.28,280.96c1.04,5.64,0.76,11.21-0.24,16.88c-0.5,2.83,1.95,5.38,2.82,8.17
	c1.46,4.71,2.14,9.58,3.22,14.32c2.31,10.19,4.18,20.52,4.79,31.04c0.19,3.3,2.25,6.24,2.65,9.73c0.74,6.38,1.37,12.79,2.22,19.15
	c0.5,3.74,1.09,8.1-0.85,11.95"/>
<path class="st0" d="M900.85,527.78c1.37,0.15,2.8-0.34,4.1,0.34c1.36,3.6,1.32,7.63,4.43,10.6c1.83,1.74,1.97,4.52,2.13,7.04"/>
<path class="st0" d="M905.71,492.2c-0.3,3.12,0.83,6.39-2.9,8.76c-2.58,1.63-0.93,4.85-0.41,7.33c0.27,1.27,1.11,2.42,0.32,3.76"/>
<path class="st0" d="M942.02,524.41c2.01-0.07,1.8,0.88,1.14,2.25c-3.27,6.79-4.97,14.29-10.03,20.29
	c-2.79,3.3-4.19,7.58-4.91,11.92c-0.14,0.87-0.26,1.39-1.17,1.49"/>
<path class="st0" d="M903.09,707.93c-4.74-0.22-9.5,0.45-14.22-0.37"/>
<path class="st0" d="M793.42,645.76c1.4,1.87-0.08,3.74-0.07,5.62c0.02,11.61-0.18,23.22-0.3,34.83"/>
<path class="st0" d="M1091.75,398.56c0.25-2,0.5-4,0.76-6.07c4.73,1.67,4.69,6.07,5.57,9.83c1.85,7.84,3.54,15.72,5.27,23.59
	c0.9,4.07-0.13,8.3,1.03,12.39c0.25,0.87-0.13,2.19-1.35,3.05c-1.03,0.73-1.65,2.11-2.28,3.3c-1.35,2.53-2.09,5.11,0.36,7.48
	c0.75,0.73,1.27,1.53,1.12,2.63"/>
<path class="st0" d="M881.76,346.88c-1.51,1.7-0.5,3.75-0.73,5.62c-0.26,2.12,0.52,4.37-0.77,6.37"/>
<path class="st0" d="M879.89,681.72c0.25,1,0.5,2,0.84,3.35c-4.09,1.11-7.44,4.33-12.07,4.14"/>
<path class="st0" d="M793.42,732.65c1.24,4.84-0.28,9.79,0.48,14.59c0.45,2.88-0.62,5.92,1.02,8.63"/>
<path class="st0" d="M914.32,779.47c-2.83,4.86-5.24,5.69-11.98,4.12"/>
<path class="st0" d="M805.02,692.58c-1.41,4-3.73,7.83-2.25,12.36"/>
<path class="st0" d="M804.65,738.65c-1.12,5.99-3.37,11.61-5.61,17.23"/>
<path class="st0" d="M1044.21,455.87c0.3,5.68-1.54,11.03-2.66,16.47c-0.78,3.76-2.16,7.33-0.44,11.29c0.68,1.58,0.11,3.7,0.11,5.57
	c-2.62,0-5.24,0-7.86,0"/>
<path class="st0" d="M968.23,414.67c-2.67,3.16-7.15,3.83-9.73,7.12"/>
<path class="st0" d="M795.29,756.62c1.31,5.24,0.33,10.49,0,15.73"/>
<path class="st0" d="M981.7,392.2c-1.14,1.28-3.17,2.16-1.91,4.51c0.2,0.37,0.24,1.05-0.33,1.49c-2.57,2-3.37,4.99-4.58,7.82
	c-0.78,1.82-1.12,4.28-4.02,4.63c-1.06,0.13-0.06,2.37-1.51,2.9"/>
<path class="st0" d="M1023.25,339.39c1.68,1.96,2.17,8.29,0.72,10.09c-0.15,0.18-0.72,0.02-1.09,0.02"/>
<path class="st0" d="M1014.64,531.9c0,2.87,0,5.74,0,8.61"/>
<path class="st0" d="M1027.37,531.15c2.78,0.48,5.25,2.3,8.24,1.87"/>
<path class="st0" d="M882.13,346.13c-0.15-2.76,2.75-4.16,2.71-7.04c-2.79-2.87-3.88-3.18-7.54-1.14c-1.45,0.81-2.53-0.63-3.78-0.06
	"/>
<path class="st0" d="M1074.53,247.62c-2.74,0-5.49,0-8.24,0"/>
<path class="st0" d="M844.33,793.33c0,2.75,0,5.49,0,8.24"/>
<path class="st0" d="M1041.22,475.72c2.62,0,5.24,0,7.86,0"/>
<path class="st0" d="M1033.36,495.2c1.35,4,4.72,1.58,7.11,2.25"/>
<path class="st0" d="M919.19,325.9c-1.91-2.13-3.93-4.04-7.11-3.75"/>
<path class="st0" d="M989.19,328.9c3.87,0.91,3.98,1.14,3.39,5.25c-0.25,1.73-0.27,3.49-0.39,5.24"/>
<path class="st0" d="M966.73,776.85c-2.67-0.92-5.73,0.35-8.24-1.5"/>
<path class="st0" d="M1049.08,484.71c-2.46-0.8-4.99-0.18-7.49-0.37"/>
<path class="st0" d="M1040.84,486.96c-2.5,0-4.99,0-7.49,0"/>
<path class="st0" d="M861.17,791.46c-2.37-0.7-4.74-0.46-7.11,0"/>
<path class="st0" d="M1051.33,451.75c-2.08,1.72-4.52,0.26-6.74,0.75"/>
<path class="st0" d="M887.37,775.35c-0.37,2.36,0.8,4.88-0.75,7.12"/>
<path class="st0" d="M1051.33,460.74c-2.37,0-4.74,0-7.11,0"/>
<path class="st0" d="M988.44,328.53c-2.4-1.1-4.56-0.11-6.74,0.75"/>
<path class="st0" d="M1045.34,442.01c-2.25,0-4.49,0-6.74,0"/>
<path class="st0" d="M1021.75,338.26c-2.49,0.16-3.13-3.15-5.61-3"/>
<path class="st0" d="M1051.33,454c-4.3,0-8.39,1.84-12.73,1.5"/>
<path class="st0" d="M824.49,794.08c-1.29,2.25,0.47,4.49,0,6.74"/>
<path class="st0" d="M973.84,778.72c-1.62-2.61-4.47-0.04-6.36-1.5"/>
<path class="st0" d="M933.04,441.64c-1.25,2.19-2.61,4.29-4.49,5.99"/>
<path class="st0" d="M794.91,630.4c-3.46,3.55-1.66,7.95-1.73,11.99c-0.02,0.86-0.26,1.75-0.14,2.62"/>
<path class="st0" d="M841.7,794.08c-1.85,2.02,0.22,4.27-0.37,6.37"/>
<path class="st0" d="M864.16,577.59c0.46,3.76,3.41,1.68,5.24,2.25"/>
<path class="st0" d="M808.02,789.58c-2.29-0.02-4.03,1.39-5.99,2.25"/>
<path class="st0" d="M1054.32,806.06c2.05,1.15,3.32,2.8,3.37,5.24"/>
<path class="st0" d="M957.74,774.98c-1.95-0.8-4-0.17-5.99-0.37"/>
<path class="st0" d="M1039.72,502.69c1.86,0.36,3.91-0.78,5.61,0.75"/>
<path class="st0" d="M812.51,648.01c-1.43-0.2-2.34,0.79-3.55,1.44c0.47,0.97,0.68,2.05,1.34,2.64c3.74,3.36,2.37,7.61,2.19,11.65
	c-0.04,0.91-0.84,0.78-1.48,0.75"/>
<path class="st0" d="M797.53,793.33c-2.09-0.54-3.95,0.84-5.99,0.75"/>
<path class="st0" d="M1036.35,528.15c-2-0.12-3.99-0.25-5.99-0.37"/>
<path class="st0" d="M1039.35,492.57c-1.99,0.29-3.92,1.1-5.99,0.75"/>
<path class="st0" d="M942.4,437.52c-1.39,1.24-0.9,3.61-2.96,4.57c-1.03,0.48-1.37,0.1-1.91-0.45"/>
<path class="st0" d="M902.34,521.04c0.93,2.19,3.27,3.9,2.25,6.74"/>
<path class="st0" d="M1048.33,418.41c1.79,0.81,3.6,1.55,5.61,1.5"/>
<path class="st0" d="M882.51,773.48c0.4,2.03-1.14,3.67-1.12,5.62"/>
<path class="st0" d="M901.97,782.09c-1.87,0-3.74,0-5.61,0"/>
<path class="st0" d="M867.91,611.68c-1.77-0.12-3.4-1.14-5.24-0.75"/>
<path class="st0" d="M954,777.22c-1.7,0.83-3.5,0.16-5.24,0.37"/>
<path class="st0" d="M985.07,778.72c-2.62-0.2-5.27,0.39-7.86-0.37"/>
<path class="st0" d="M1087.26,372.35c1.26,1.68,3.09,1.5,4.87,1.5"/>
<path class="st0" d="M1067.8,566.36c0.21,1.74-0.45,3.55,0.37,5.24"/>
<path class="st0" d="M1049.83,467.85c-1.84,0.39-3.47-0.63-5.24-0.75"/>
<path class="st0" d="M832.72,790.71c-1.75-0.25-3.49-0.5-5.24-0.75"/>
<path class="st0" d="M1045.34,434.15c-1.6-1.3-3.49-0.54-5.24-0.75"/>
<path class="st0" d="M1081.65,310.92c-1.62,0-3.24,0-4.87,0"/>
<path class="st0" d="M1087.26,552.12c-0.93,1.56-0.92,3.19-0.37,4.87"/>
<path class="st0" d="M867.53,630.78c1.62,0,3.24,0,4.87,0"/>
<path class="st0" d="M1021,540.51c0.12,1.62,0.25,3.25,0.37,4.87"/>
<path class="st0" d="M777.32,791.08c-1.54-0.36-2.88,1.63-4.49,0.37"/>
<path class="st0" d="M946.51,433.02c-1.84,0.65-3.09,1.9-3.74,3.75"/>
<path class="st0" d="M1065.55,790.33c-0.55,1.48-1.81,2.72-1.5,4.49"/>
<path class="st0" d="M804.65,776.85c-1.76,1.36,0.07,3.02-0.37,4.49"/>
<path class="st0" d="M808.39,686.21c-1.48,1.17-0.03,3.32-1.5,4.49"/>
<path class="st0" d="M852.93,655.5c-1.5,0-2.99,0-4.49,0"/>
<path class="st0" d="M822.99,406.05c-1.5,0-2.99,0-4.49,0"/>
<path class="st0" d="M868.28,689.96c-1.25,1.75-2.5,3.5-3.74,5.24"/>
<path class="st0" d="M831.97,813.55c-0.79,2.54-2.66-0.31-3.72,0.91c-0.77-1.21-0.2-2.41-0.43-3.59c1.09-0.68,2.29-0.15,3.41-0.32"
	/>
<path class="st0" d="M852.56,660.74c1.37,0,2.74,0,4.12,0"/>
<path class="st0" d="M867.91,337.51c2.26,2.24,2.64,2.13,3.74-1.12"/>
<path class="st0" d="M828.23,795.58c2.16,0.53,0.74,2.25,1.12,3.37"/>
<path class="st0" d="M980.95,775.35c-2.78-0.14-1.02,1.99-1.5,3"/>
<path class="st0" d="M1086.89,339.39c-1.37-0.12-2.74-0.25-4.12-0.37"/>
<path class="st0" d="M866.41,460.74c-1.08,1.8-2.5,0.22-3.74,0.37"/>
<path class="st0" d="M843.2,810.56c0.02,2.02-0.02,3.97-2.99,3"/>
<path class="st0" d="M818.12,794.45c0.64,2.17-0.82,4.21-0.37,6.37"/>
<path class="st0" d="M1079.02,276.46c-0.2,1.24,0.42,2.56-0.37,3.75"/>
<path class="st0" d="M868.66,758.87c0,1.25,0,2.5,0,3.75"/>
<path class="st0" d="M1049.08,478.72c-1.25-0.12-2.5-0.25-3.74-0.37"/>
<path class="st0" d="M848.44,528.15c0.59,1.98,2.22,0.83,3.37,1.12"/>
<path class="st0" d="M1098.49,409.05c-1.25,0-2.5,0-3.74,0"/>
<path class="st0" d="M986.94,597.07c0,1.25,0,2.5,0,3.75"/>
<path class="st0" d="M796.79,662.99c-1.12,0-2.25,0-3.37,0"/>
<path class="st0" d="M949.14,429.28c-1.24,0.78-0.3,2.77-1.87,3.37"/>
<path class="st0" d="M1099.61,451c-1.12,0-2.25,0-3.37,0"/>
<path class="st0" d="M801.28,792.2c-0.81,1.02-2.19-0.27-2.99,0.75"/>
<path class="st0" d="M874.65,785.46c-0.91-0.79-2.01-0.17-2.99-0.37"/>
<path class="st0" d="M1099.24,448.75c-1,0-2,0-2.99,0"/>
<path class="st0" d="M809.51,640.52c-1,0-2,0-2.99,0"/>
<path class="st0" d="M796.79,618.79c-1,0-2,0-2.99,0"/>
<path class="st0" d="M878.76,364.86c-1.48,0.51-0.02,2.49-1.5,3"/>
<path class="st0" d="M805.77,534.15c-1,0-2,0-2.99,0"/>
<path class="st0" d="M1058.06,595.57c-0.55,1.37-1.76,0.46-2.62,0.75"/>
<path class="st0" d="M806.52,521.41c-1,0-2,0-2.99,0"/>
<path class="st0" d="M796.79,606.06c-1,0-2,0-2.99,0"/>
<path class="st0" d="M952.13,425.91c-0.03,1.49-1.88,0.79-2.25,1.87"/>
<path class="st0" d="M859.3,634.15c-0.87-0.12-1.75-0.25-2.62-0.37"/>
<path class="st0" d="M861.92,699.32c0,0.87,0,1.75,0,2.62"/>
<path class="st0" d="M840.96,733.4c-2.5,0.08-0.87,2.46-1.87,3.37"/>
<path class="st0" d="M858.92,783.59c-0.07,0.88-0.14,1.76-0.2,2.64c-1.04-0.15-1.92-0.27-2.79-0.4"/>
<path class="st0" d="M1091,666.73"/>
<path class="st0" d="M1093.62,666.73"/>
<path class="st0" d="M1094.75,642.01"/>
<path class="st0" d="M1096.99,641.27"/>
<path class="st0" d="M836.46,736.4c1.93-0.15,3.22,1.94,5.24,1.5"/>
<path class="st0" d="M903.47,778.72c0.84,2.8-0.28,4.54-3.37,5.24"/>
<path class="st0" d="M851.44,535.27c0.1-0.25,0.84-0.83,0.02-0.66c-0.99,0.2-1.94,0.69-3.01,0.66"/>
<path class="st0" d="M1081.27,590.33c-0.92-5.17,1.71-11.61-5.24-14.61h-8.7l-3.5,8.53l-12.71-0.42l-2.21,2.46
	c-0.43,1.2,2.23,3.71,2.85,4.34c3.39,3.46,3.19,7.64,3.51,12.04c0.24,3.25-0.75,5.29-2.86,7.1c-3.02,2.61-5.97,5.46-9.4,7.41
	c-4.18,2.37-4.53,6.8-6.62,10.26c-4.16,6.86-8.67,13.49-13.65,19.72c-2.97,3.72-4.37,7.95-6.26,12.07
	c-0.77,1.68-0.17,3.43,0.16,4.85c1.14,5.03-0.16,9.22-3.94,12.32c-4.1,3.36-7.06,7.71-7.92,12.48c-1.01,5.6-2.61,11.83,1.61,17.18
	l1.73,2.52c4.62,0.25,9.41,0.82,14.03,0.92c6.24,0.12,12.08-0.96,18.3-1.27c4.96-0.25,9.66,1.75,14.6,1.2l0.75,0.37
	c1.5,1.02,3.24,0.01,4.91,0.65c1.38,0.53,3.02-0.01,3.7-1.77l0.37,1.12c2.62,1.63,5.5,0.65,8.24,0.69c7.48,0.09,7.59-0.03,7.45-7.43
	c-0.09-4.39-0.9-8.76,0.39-13.12c0.43-1.46,0.73-2.48,2.59-3.12c3.21-1.11,7.08-2.29,7.81-6.25c0.89-4.8,4.5-9.16,3.18-14.34
	c-0.14-0.56,0.11-1.31,0.65-1.11l0.31-0.83c0.37-2.82-0.52-0.96-1.08-1.94c-0.33-2.72-0.29-3.22-0.61-5.74
	c-0.26-2.06-0.25-4.63,0.76-6.29c4.45-7.31,2.66-14.94,1.72-22.54c-0.42-3.38-1.94-6.67-1.4-10.11c0.7-4.48-1.4-7.51-4.59-10.06
	c-0.35-0.28-1.2-0.3-1.43-0.82c-2.31-5.27-7.58-9.2-7.13-15.72L1081.27,590.33z"/>
<path class="st0" d="M1041.22,489.58c0.42,5.34-1.09,10.35-2.61,15.36c-0.15,0.49-0.03,0.97-0.34,1.52
	c-4.08,7.17-5.89,15.36-10.14,22.45c-1.18,1.97-2.18,4.03-3.39,5.98c-1.64,2.63-3.96,4.2-7.08,4.94c-4.59,1.08-4.89,1.76-3.36,6.3
	c1.8,5.35,4.13,10.07,10.02,12.53c3.8,1.59,6.69,4.95,8.7,8.82c2.4,4.65,4.16,9.7,8.93,12.8"/>
<path class="st0" d="M1066.3,794.83c-0.73,0.31-1.92-0.76-2.25,0.75"/>
<path class="st0" d="M793.04,778.72c-1.42-0.35-2.19,0.6-2.99,1.5"/>
<path class="st0" d="M957.37,777.22c-0.37,0.51-0.75,0.51-1.12,0"/>
<path class="st0" d="M761.83,303"/>
<path class="st0" d="M1117.21,489.95c-0.06,2.11,0.45,4.36-1.5,5.99l2,8.56h2.5c0,0,2.25,5.79,2.12,6.96c-0.12,1.17,0,5.58,0,5.58
	l2.17,3.21l-1.58,4.46l9.29,10l1.04,2.12l-0.62,4.71l-0.58,3.38l1.46,0.38l-0.04,8.08l-1.12,4.25l-3.12,1.21l0.33,1.83l3.17,0.62
	c0,0,3.08,0.54,3.25,0.58c0.17,0.04,0.21,1.29,0.21,1.29s2.54,0.25,2.67,0.33s3,2.53,3,2.53l0.72,0.56l-1.01,0.7
	c-1.71,1.29-6.19,1.81-5.25,6.57l-1.12,1.12c-0.88-0.06-1.93-0.01-1.83,1.12c0.25,2.71-1.38,3.03-3.41,3l-2.97,2.24
	c0,0,0.29,18.92,0,19.67c-0.29,0.75-2.12,2.71-2.12,2.71l-3.51,3.47c1.2,3.28-1.97,2.97-3.37,4.12l1.55,11.2c0,0-0.04,8.12,0,9.29
	c0.04,1.17,0.54,1.29,0.54,1.29l1.58,1.96l0.04,1.46l1.21,1.62l0.62,1.75l2.5,1.12l-0.88,20.25l-0.46,5.67l-2.08,2.5
	c0,0-0.46,4.25-0.08,5.17c0.38,0.92-0.46,2.54-0.83,2.92s-0.67,0.62-2.25,1.5c-1.58,0.88-0.88,1.04-0.88,1.04l-0.62,1.67l2.58,1.58
	l0.08,6.33l0.08,2.04c0,0,0.5,1.08,0.67,1.29c0.17,0.21,0.62,0.67,0.75,0.88c0.12,0.21,0.54,1.46,0.54,1.46l1.33,1.58
	c0,0,2.46,2,2.88,2.29c0.42,0.29,0.08,1.88,0.08,1.88l0.62,2.62l0.5,2.79l1.42,1.38v3.79l-25.62,0.16c-1.2,0.25-2.37-0.15-3.42-0.78
	c-0.48-0.29-1.32-0.03-1.92-0.06c-5.74-0.26-11.49,0.45-17.22-0.39"/>
<polyline class="st0" points="1117.38,489.95 1116.58,481.54 1115.04,480 1114.79,472.62 1113.21,470.67 1112.92,463.79 
	1111.75,460.5 1109.92,450.46 1109.42,442.71 1109.25,440.38 "/>
</svg>
